<?xml version="1.0" encoding="utf-8"?>
<!-- Generator: Adobe Illustrator 25.1.0, SVG Export Plug-In . SVG Version: 6.00 Build 0)  -->
<svg version="1.1" id="圖層_1" xmlns="http://www.w3.org/2000/svg" xmlns:xlink="http://www.w3.org/1999/xlink" x="0px" y="0px"
	 viewBox="0 0 219.9 53.4" style="enable-background:new 0 0 219.9 53.4;" xml:space="preserve">
<style type="text/css">
	.st0{fill:#1D2087;}
	.st1{fill:#009844;}
</style>
<g id="_x37_3fd7d41-255c-4636-9f46-384e5eb4f4df">
	<g id="f3c9ada0-a08e-41a6-8475-1a0c4d8263c0">
		<path class="st0" d="M99.5,9h-9c0,0-3.2,35.6-39.7,35.6c0,0-15.5,1.8-14.5-17.9h1.6l-6-11.2l-6,11.2h1.4c0,0-3.7,26.6,24.5,26.6
			C51.8,53.4,93.2,54.5,99.5,9z"/>
		<path class="st1" d="M0,44.7h9c0,0,3.4-35.8,39.8-35.8c0,0,15.4-1.9,14.3,17.7h-1.6l6,11.2l6-11.2h-1.4c0,0,3.6-26.6-24.6-26.6
			C47.7,0,6.3-0.8,0,44.7z"/>
		<path d="M118.7,15V5h2.7v12c0.1,2.8-0.6,5.5-1.9,7.9c-0.6,1.1-1.5,2-2.6,2.6c-1.5,0.8-3,1.4-4.7,1.7l-1.6-2.6
			c1.4-0.1,2.8-0.5,4.2-1.1c2.3-1.2,3.6-3.6,3.8-7c-2,1.5-4.2,2.9-6.4,4.2l-1.5-2.7C113.5,18.5,116.2,16.8,118.7,15z M111.3,8.2
			l2.2-1.7c1.7,1.9,3.2,4,4.4,6.3l-2.3,1.5C114.3,12.2,112.9,10.2,111.3,8.2L111.3,8.2z M124.1,4.8h2.7V25c0,0.3,0.1,0.6,0.3,0.9
			c0.3,0.3,0.6,0.4,1,0.4h3.6c0.3,0,0.6-0.1,0.8-0.3c0.2-1,0.3-2.1,0.3-3.1l2.7,0.5c-0.2,2.6-0.4,4.2-0.7,4.5c-0.5,0.6-1.2,1-2,1.1
			h-6.7c-0.6,0-1.1-0.3-1.5-0.7c-0.3-0.4-0.5-0.8-0.5-1.3L124.1,4.8z M127.3,16.9l1.6-2.2c2.3,1.5,4.5,3.2,6.4,5.1l-1.8,2.1
			C131.7,20,129.6,18.4,127.3,16.9L127.3,16.9z M132.5,5.8l2.2,1.6c-1.4,2.4-3.1,4.5-5,6.5l-2.2-1.7C129.4,10.3,131,8.1,132.5,5.8
			L132.5,5.8z"/>
		<path d="M139,24.4V8h-0.9V5.5h8.6V8h-1.3v21.2h-2.3v-3.8c-0.2,0-0.3,0.1-0.4,0.2c-1.3,0.6-2.6,1.2-3.9,1.6l-1.1-2.3L139,24.4z
			 M141.3,11.2h1.8V8h-1.8V11.2z M141.3,16.8h1.8v-3.1h-1.8V16.8z M141.3,23.4c0.7-0.3,1.3-0.6,1.8-0.9v-3.3h-1.8V23.4z M160.9,16
			l-5.8,1c0,0,0,0.1,0,0.1l-2.1,0.7c-0.1-0.4-0.2-0.7-0.4-1.1l-6.2,1c-0.1-0.8-0.3-1.5-0.6-2.2l1.7-0.3c0.5-0.7,1.1-1.5,1.8-2.5
			c-1.1-1-2.3-1.9-3.6-2.6l1.1-2c0.2,0.1,0.4,0.2,0.6,0.3c0.7-1.4,1.4-2.8,1.9-4.3l2.1,1c-0.7,1.6-1.4,3.1-2.3,4.6
			c0.4,0.3,0.8,0.6,1.2,1c0.5-1.1,0.9-2.2,1.2-3.4l2.3,0.6c-0.4,1.4-0.9,2.6-1.6,3.9c-0.3,0.4-0.5,0.9-0.8,1.3l1.7-0.7
			c0.4,0.8,0.8,1.6,1.1,2.5l1.5-0.3c0.4-0.5,0.8-1,1.2-1.6c-1-1-2.2-1.9-3.4-2.6l1.1-2c0.3,0.1,0.6,0.3,0.8,0.5
			c0.7-1.4,1.4-2.9,2.1-4.6l2.1,1c-0.7,1.7-1.5,3.3-2.4,4.9c0.4,0.3,0.7,0.6,1,0.9c0.7-1.3,1.2-2.6,1.6-4l2.3,0.7
			c-0.7,2.3-1.8,4.5-3.3,6.4l1.4-0.3c-0.1-0.3-0.2-0.6-0.3-0.8l2.1-0.7c0.7,1.4,1.2,3,1.5,4.5l-2.1,0.6
			C161.1,16.8,161,16.4,160.9,16z M150.7,25.2c-0.8,0.1-1.5,0.2-2.3,0.2c-0.4-0.1-0.7-0.2-1-0.5c-0.5-0.5-0.7-1.2-0.7-1.9v-4.7h2.5
			v3.7c0,0.1,0,0.2,0,0.3c0,0.1,0.2,0.2,0.3,0.3c0.1,0,0.6-0.1,1.4-0.1v-4.5h2.5v6.2c0,0.5-0.1,1-0.3,1.5c-0.8,1.8-2.5,3.1-5.3,4
			l-1.2-2.3c2-0.5,3.4-1.2,4-2.1C150.6,25.3,150.6,25.3,150.7,25.2L150.7,25.2z M151.8,14.6c-0.2-0.4-0.3-0.8-0.5-1.1
			c-0.3,0.5-0.6,0.9-0.9,1.4L151.8,14.6z M157.7,23h1.8c0.2,0,0.4-0.1,0.4-0.3c0,0,0-0.1,0-0.1v-4.3h2.5v6.5c0,0.3-0.2,0.7-0.6,0.7
			c0,0-0.1,0-0.1,0h-4v3.6h-2.5V17.8h2.5L157.7,23z"/>
		<path d="M176.5,6V4.7h2.7V6h10.4c0.7,0,1,0.3,0.9,1c-0.1,1.3-0.3,2.5-0.6,3.8c-0.8-0.2-1.6-0.4-2.5-0.6c0.2-0.6,0.3-1.1,0.4-1.7
			c0-0.2-0.1-0.4-0.3-0.4h-19c-0.2,0-0.2,0.1-0.2,0.2v2.1h-2.5V6.4c0-0.3,0.1-0.4,0.4-0.4L176.5,6z M186.4,13.3l-0.2,2.1
			c0,0.1-0.1,0.3-0.2,0.3c-0.2,0.1-0.4,0.1-0.6,0.1h-16c-0.3,0-0.6-0.1-0.8-0.3c-0.2-0.2-0.2-0.3-0.2-0.4l0.3-1.8h-2.8v-2h3.1
			l0.4-2.2c0-0.1,0.1-0.2,0.2-0.3c0.2-0.1,0.4-0.1,0.6-0.1h15.8c0.2,0,0.4,0.1,0.6,0.2c0.2,0.1,0.3,0.2,0.3,0.4l-0.2,2h3.3v2
			L186.4,13.3z M181.4,26h-7.1l0.5,1.3c-2.2,1-4.4,1.8-6.7,2.6l-0.7-2.4c1.1-0.4,2.4-0.8,3.8-1.4c0.1-0.1,0.2-0.1,0.3-0.1h-2.9
			c-0.2,0-0.3-0.1-0.3-0.3v-9.2c0-0.2,0.1-0.3,0.3-0.3h18.9c0.2,0,0.3,0.1,0.3,0.3v9.2c0,0.2-0.1,0.3-0.3,0.3c0,0-0.1,0-0.1,0h-3.1
			c2.1,0.7,3.5,1.2,4.4,1.5l-0.9,2.3c-2.4-0.7-4.7-1.6-6.9-2.6L181.4,26z M170.8,18.9h14.3v-0.5c0-0.1,0-0.1-0.1-0.1c0,0,0,0,0,0
			h-14.2c-0.1,0-0.1,0-0.1,0.1L170.8,18.9z M185.1,23.3h-14.3v0.4c0,0,0,0.1,0,0.1c0,0,0,0,0,0H185c0.1,0,0.1-0.1,0.1-0.1
			c0,0,0,0,0,0L185.1,23.3z M170.8,21.4h14.3v-0.7h-14.3L170.8,21.4z M176.3,13.8l0.1-0.6h-5.2c-0.1,0.3,0.1,0.5,0.5,0.6H176.3z
			 M176.7,11.3l0.1-0.6h-4.8c-0.2,0-0.4,0.1-0.4,0.4v0.1H176.7z M178.9,13.3l-0.1,0.6h4.7c0.2,0,0.4-0.1,0.4-0.4v-0.1H178.9z
			 M179.3,10.8l-0.1,0.6h4.8c0-0.4-0.1-0.6-0.5-0.6H179.3z"/>
		<path d="M206.6,23.8v5.3h-2.7v-5.4c-3,2.1-6.3,3.5-9.9,4.3l-1.1-2.6c3.1-0.6,6-1.7,8.8-3.3h-8.2v-2.3h10.4v-1.3H195v-2.3h8.9v-1.2
			h-9.5v-2.3h5.5c-0.3-0.7-0.7-1.3-1-1.8h-5.5V8.7h4.2c-0.5-0.9-1-1.7-1.6-2.5l2-1.5c0.8,1,1.6,2,2.1,3.1l-1.2,0.8h2.8V4.6h2.5v4.1
			h1.9V4.6h2.5v4.1h2.2L210.1,8c0.9-1.1,1.7-2.3,2.4-3.6l2.2,1.3c-0.5,1-1.1,2-1.8,2.9h4.1V11h-5.8c-0.2,0.6-0.5,1.2-0.8,1.8h5.6
			v2.3h-9.3v1.2h8.7v2.3h-8.7v1.3h10.2v2.3h-8.1c0,0,0,0,0.1,0c2.7,1.7,5.8,2.8,8.9,3.4l-1.4,2.5C212.8,27.1,209.6,25.7,206.6,23.8z
			 M202.8,12.8h4.7c0.3-0.7,0.6-1.3,0.9-1.8h-6.4C202.2,11.5,202.5,12.1,202.8,12.8L202.8,12.8z"/>
		<path d="M111.8,49.1v-8.9h1.8l2.1,6.3c0.2,0.6,0.3,1,0.4,1.3c0.1-0.3,0.3-0.8,0.5-1.4l2.2-6.2h1.6v8.9h-1.1v-7.5l-2.6,7.5h-1.1
			l-2.6-7.6v7.6H111.8z"/>
		<path d="M122.4,49.1v-8.9h6.5v1h-5.3V44h4.9v1h-4.9v3.1h5.5v1L122.4,49.1z"/>
		<path d="M135,45.6v-1h3.8v3.3c-0.5,0.4-1.1,0.8-1.8,1c-0.6,0.2-1.3,0.4-1.9,0.4c-0.8,0-1.7-0.2-2.4-0.6c-0.7-0.4-1.3-0.9-1.6-1.6
			c-0.4-0.7-0.6-1.6-0.6-2.4c0-0.8,0.2-1.7,0.5-2.4c0.3-0.7,0.9-1.3,1.6-1.7c0.7-0.4,1.5-0.6,2.4-0.6c0.6,0,1.2,0.1,1.8,0.3
			c0.5,0.2,0.9,0.5,1.2,0.9c0.3,0.4,0.6,0.9,0.7,1.5l-1.1,0.3c-0.1-0.4-0.3-0.8-0.5-1.1c-0.2-0.3-0.5-0.5-0.9-0.6
			c-0.4-0.2-0.8-0.2-1.2-0.2c-0.5,0-1,0.1-1.4,0.2c-0.4,0.1-0.7,0.4-1,0.7c-0.2,0.3-0.4,0.6-0.6,0.9c-0.2,0.6-0.3,1.2-0.3,1.8
			c0,0.7,0.1,1.4,0.4,2c0.3,0.5,0.7,0.9,1.2,1.2c0.5,0.3,1.1,0.4,1.7,0.4c0.5,0,1-0.1,1.5-0.3c0.4-0.1,0.8-0.4,1.1-0.6v-1.7H135z"/>
		<path d="M139.7,49.1l3.4-8.9h1.3l3.6,8.9h-1.4l-1-2.7h-3.8l-1,2.7H139.7z M142.2,45.5h3.1l-0.9-2.5c-0.3-0.8-0.5-1.4-0.6-1.8
			c-0.1,0.6-0.3,1.2-0.5,1.7L142.2,45.5z"/>
		<path d="M157.9,40.2h1.2v5.2c0,0.7-0.1,1.5-0.3,2.1c-0.2,0.5-0.6,1-1.1,1.3c-0.6,0.4-1.4,0.5-2.1,0.5c-0.7,0-1.4-0.1-2.1-0.4
			c-0.5-0.3-0.9-0.7-1.1-1.2c-0.3-0.7-0.4-1.5-0.3-2.2v-5.2h1.2v5.2c0,0.6,0,1.2,0.2,1.7c0.1,0.4,0.4,0.7,0.8,0.8
			c0.4,0.2,0.8,0.3,1.3,0.3c0.7,0.1,1.3-0.1,1.9-0.6c0.4-0.7,0.6-1.5,0.6-2.3L157.9,40.2z"/>
		<path d="M161.2,49.1v-8.9h1.2l4.7,7v-7h1.1v8.9H167l-4.7-7v7L161.2,49.1z"/>
		<path d="M170.5,49.1v-8.9h1.2v8.9L170.5,49.1z"/>
		<path d="M173.6,44.8c-0.1-1.3,0.4-2.5,1.2-3.5c0.8-0.9,1.9-1.3,3.1-1.3c0.8,0,1.6,0.2,2.2,0.6c0.7,0.4,1.2,1,1.5,1.7
			c0.7,1.5,0.7,3.3,0,4.8c-0.4,0.7-0.9,1.3-1.6,1.7c-0.7,0.4-1.4,0.6-2.2,0.6c-0.8,0-1.6-0.2-2.3-0.6c-0.6-0.4-1.1-1-1.5-1.7
			C173.8,46.3,173.6,45.5,173.6,44.8z M174.8,44.8c0,0.9,0.3,1.8,0.9,2.5c0.6,0.6,1.4,0.9,2.2,0.9c0.8,0,1.6-0.3,2.2-0.9
			c0.6-0.7,0.9-1.7,0.9-2.7c0-0.7-0.1-1.3-0.4-1.9c-0.2-0.5-0.6-1-1.1-1.3c-0.5-0.3-1-0.5-1.6-0.5c-0.8,0-1.6,0.3-2.2,0.9
			C175,42.7,174.7,43.7,174.8,44.8L174.8,44.8z"/>
		<path d="M183.8,49.1v-8.9h1.2l4.7,7v-7h1.1v8.9h-1.2l-4.7-7v7L183.8,49.1z"/>
		<path d="M196.7,49.1v-8.9h1.2v8.9L196.7,49.1z"/>
		<path d="M200.1,49.1v-8.9h1.2l4.7,7v-7h1.1v8.9H206l-4.7-7v7L200.1,49.1z"/>
		<path d="M215.6,46l1.2,0.3c-0.2,0.9-0.7,1.6-1.3,2.2c-0.7,0.5-1.5,0.8-2.4,0.8c-0.8,0-1.6-0.2-2.3-0.6c-0.6-0.4-1.1-1-1.4-1.7
			c-0.3-0.8-0.5-1.6-0.5-2.4c0-0.8,0.2-1.7,0.5-2.4c0.3-0.7,0.9-1.2,1.5-1.6c0.7-0.4,1.4-0.5,2.2-0.5c0.8,0,1.6,0.2,2.2,0.7
			c0.6,0.5,1.1,1.2,1.3,1.9l-1.1,0.3c-0.1-0.6-0.5-1-0.9-1.4c-0.4-0.3-1-0.5-1.5-0.5c-0.6,0-1.2,0.2-1.7,0.5c-0.5,0.3-0.8,0.8-1,1.3
			c-0.2,0.6-0.3,1.1-0.3,1.7c0,0.7,0.1,1.4,0.3,2c0.2,0.5,0.5,1,1,1.3c0.5,0.3,1,0.4,1.5,0.4c0.6,0,1.2-0.2,1.7-0.6
			C215.2,47.3,215.5,46.7,215.6,46z"/>
		<path d="M218.6,49.1v-1.2h1.2v1.2H218.6z"/>
	</g>
</g>
</svg>
