<?xml version="1.0" encoding="utf-8"?>
<!-- Generator: Adobe Illustrator 25.3.1, SVG Export Plug-In . SVG Version: 6.00 Build 0)  -->
<svg version="1.1" id="圖層_1" xmlns="http://www.w3.org/2000/svg" xmlns:xlink="http://www.w3.org/1999/xlink" x="0px" y="0px"
	 viewBox="0 0 120.3 120.3" style="enable-background:new 0 0 120.3 120.3;" xml:space="preserve">
<style type="text/css">
	.st0{fill:#1C1C80;}
</style>
<g id="组_1736" transform="translate(-371.806 -107.056)">
	<g id="组_1735" transform="translate(371.806 107.056)">
		<g id="组_1734">
			<g id="组_1733">
				<path id="路径_2997" class="st0" d="M120,43.1L97.9,19.6c-0.5-0.5-1.3-0.6-1.9-0.1c0,0,0,0,0,0l-9.3,8.8
					c-0.5,0.5-0.6,1.3-0.1,1.9c0,0,0,0,0,0l22.1,23.5c0.5,0.5,1.3,0.6,1.9,0.1l9.3-8.8C120.5,44.5,120.5,43.7,120,43.1
					C120,43.1,120,43.1,120,43.1z M111.9,45.8c-1.2,1.1-3,1-4.1-0.1c-1.1-1.2-1-3,0.1-4.1c1.2-1.1,3-1,4.1,0.1c0,0,0,0,0,0
					C113.1,42.9,113.1,44.7,111.9,45.8z M22.8,22.9c-0.6-0.4-1.4-0.3-1.9,0.2L0.3,49.7c-0.4,0.6-0.3,1.4,0.2,1.9l10.1,7.9
					c0.6,0.4,1.4,0.3,1.9-0.2c0,0,0,0,0,0l20.6-26.6c0.4-0.6,0.3-1.4-0.2-1.9L22.8,22.9z M13.1,50.5c-1,1.3-2.8,1.5-4.1,0.5
					c-1.3-1-1.5-2.8-0.5-4.1c1-1.3,2.8-1.5,4.1-0.5C13.8,47.4,14.1,49.3,13.1,50.5C13.1,50.5,13.1,50.5,13.1,50.5z"/>
				<path id="路径_2998" class="st0" d="M89.9,76.3L67.2,58.6L63,62.4C57.2,67.6,51.9,69,48,69c-0.9,0-1.9-0.1-2.8-0.2
					c-4.5-0.8-8.5-3.5-10.8-7.4c-2.1-3.2-1.4-7.5,1.5-10l16.3-14.8c-4.6-3.6-11.3-2.7-14.8,1.9L21.4,59c-1.3,1.7-1.9,3.8-1.6,5.9
					l1,8.3c0.3,2.1,1.3,4,3,5.3l27.9,21.7c1.8,1.4,4.3,1.2,5.8-0.5l1.3-1.4c1.6-1.7,1.5-4.5-0.3-6c0,0-0.1-0.1-0.1-0.1l4.7,3.9
					c1.7,1.4,4.1,1.3,5.7-0.2l1.4-1.4c1.7-1.6,1.8-4.4,0.1-6.1c-0.1-0.1-0.2-0.2-0.3-0.3l3.5,2.9c1.7,1.4,4.2,1.3,5.7-0.2l1.3-1.2
					c1.7-1.7,1.7-4.4,0.1-6c-0.1-0.1-0.2-0.2-0.3-0.2l2.3,2c1.8,1.5,4.5,1.3,6-0.4c0,0,0,0,0-0.1l2-2.4c1.5-1.8,1.3-4.5-0.6-6
					C89.9,76.3,89.9,76.3,89.9,76.3z M101,55.1L81.8,35.5c-0.8-0.8-1.9-1.4-3.1-1.5l-9.8-1.3c-1.5-0.2-3.1,0.3-4.2,1.3l-2.3,2.1
					L40.3,56.2c-0.5,0.4-0.6,1.1-0.3,1.6l0.1,0.2c1.3,2.2,3.6,3.8,6.2,4.2c3.8,0.6,8.1-1,12.3-4.8l8.2-7.5l26,20.3l8.1-7.6
					C103,60.5,103,57.2,101,55.1C101,55.1,100.9,55.1,101,55.1L101,55.1z"/>
			</g>
		</g>
	</g>
</g>
</svg>
