<svg xmlns="http://www.w3.org/2000/svg" width="120.349" height="81.901" viewBox="0 0 120.349 81.901">
  <g id="组_1736" data-name="组 1736" transform="translate(-371.806 -107.056)">
    <g id="组_1735" data-name="组 1735" transform="translate(371.806 107.056)">
      <g id="组_1734" data-name="组 1734">
        <g id="组_1733" data-name="组 1733">
          <path id="路径_2997" data-name="路径 2997" d="M491.793,130.95l-22.119-23.477a1.322,1.322,0,0,0-1.872-.056l-9.294,8.755a1.322,1.322,0,0,0-.056,1.872l22.116,23.479a1.327,1.327,0,0,0,1.875.056l9.294-8.755A1.325,1.325,0,0,0,491.793,130.95Zm-8.079,2.667a2.891,2.891,0,1,1,.122-4.086A2.891,2.891,0,0,1,483.714,133.617Zm-89.128-22.933a1.325,1.325,0,0,0-1.859.233l-20.642,26.568a1.328,1.328,0,0,0,.233,1.861l10.124,7.864a1.325,1.325,0,0,0,1.861-.233l20.642-26.566a1.328,1.328,0,0,0-.233-1.861Zm-9.713,27.682a2.9,2.9,0,1,1-.512-4.073A2.9,2.9,0,0,1,384.873,138.366Z" transform="translate(-371.806 -107.056)" fill="#1c1c80"/>
          <path id="路径_2998" data-name="路径 2998" d="M449.418,155.739l-22.684-17.71-4.136,3.784c-5.844,5.247-11.1,6.658-15.077,6.658a16.518,16.518,0,0,1-2.789-.236A15.535,15.535,0,0,1,393.9,140.8a7.8,7.8,0,0,1,1.453-10.033L411.65,115.95a10.576,10.576,0,0,0-14.83,1.92L380.91,138.43a7.95,7.95,0,0,0-1.625,5.865l1.026,8.347a7.944,7.944,0,0,0,3,5.3l27.886,21.74a4.284,4.284,0,0,0,5.788-.483l1.254-1.371a4.28,4.28,0,0,0-.406-6.17l4.68,3.924a4.28,4.28,0,0,0,5.719-.2l1.442-1.389a4.28,4.28,0,0,0-.231-6.369l3.463,2.885a4.273,4.273,0,0,0,5.735-.231l1.27-1.246a4.276,4.276,0,0,0-.188-6.287l2.286,1.975a4.28,4.28,0,0,0,6.085-.5l1.981-2.37A4.278,4.278,0,0,0,449.418,155.739Zm11.086-21.2L441.349,115a5.334,5.334,0,0,0-3.1-1.546l-9.805-1.283a5.312,5.312,0,0,0-4.248,1.326l-2.307,2.1-22.066,20.064a1.234,1.234,0,0,0-.3,1.636l.138.228a8.863,8.863,0,0,0,6.194,4.179c3.808.65,8.058-1,12.284-4.8l8.249-7.549,25.956,20.266,8.087-7.586A5.3,5.3,0,0,0,460.5,134.537Z" transform="translate(-359.552 -98.685)" fill="#1c1c80"/>
        </g>
      </g>
    </g>
  </g>
</svg>
