<?xml version="1.0" encoding="utf-8"?>
<!-- Generator: Adobe Illustrator 25.3.1, SVG Export Plug-In . SVG Version: 6.00 Build 0)  -->
<svg version="1.1" xmlns="http://www.w3.org/2000/svg" xmlns:xlink="http://www.w3.org/1999/xlink" x="0px" y="0px"
	 viewBox="0 0 100 100" style="enable-background:new 0 0 100 100;" xml:space="preserve">
<style type="text/css">
	.st0{fill:#161682;}
	.st1{fill:#1C1C80;}
</style>
<g id="圖層_1">
</g>
<g id="OBJECTS">
	<g>
		<g>
			<path class="st0" d="M29.6,16.7l1-0.3c0.2,0.5,0.2,1,0.1,1.4c-0.1,0.4-0.4,0.8-0.9,1.1c-0.5,0.4-1.1,0.5-1.7,0.4
				c-0.6-0.1-1.1-0.5-1.6-1.2c-0.5-0.7-0.6-1.3-0.5-2c0.1-0.6,0.4-1.1,1-1.5c0.5-0.3,1-0.5,1.5-0.4c0.3,0,0.6,0.2,0.9,0.5l-0.7,0.8
				c-0.2-0.2-0.4-0.3-0.6-0.3c-0.2,0-0.5,0-0.7,0.2c-0.3,0.2-0.5,0.5-0.5,0.8c0,0.3,0.1,0.8,0.4,1.3c0.4,0.5,0.7,0.8,1,0.9
				c0.3,0.1,0.7,0,1-0.2c0.2-0.1,0.4-0.3,0.4-0.6C29.7,17.4,29.7,17.1,29.6,16.7z"/>
			<path class="st0" d="M33.2,16.7l-2-4.5l3.4-1.5l0.3,0.8l-2.4,1.1l0.5,1l2.3-1l0.3,0.8l-2.3,1l0.6,1.2l2.5-1.1l0.3,0.8L33.2,16.7z
				"/>
			<path class="st0" d="M38.5,14.5l-1.2-4.8l2-0.5C39.9,9,40.2,9,40.5,9c0.3,0,0.5,0.1,0.7,0.3c0.2,0.2,0.3,0.4,0.4,0.7
				c0.1,0.4,0.1,0.7-0.1,1c-0.2,0.3-0.4,0.5-0.8,0.7c0.2,0.1,0.4,0.2,0.6,0.3c0.2,0.1,0.4,0.3,0.8,0.6l0.8,0.8l-1.2,0.3l-1-0.9
				c-0.3-0.3-0.6-0.5-0.7-0.6c-0.1-0.1-0.2-0.1-0.3-0.1c-0.1,0-0.3,0-0.5,0.1L39,12.2l0.5,2L38.5,14.5z M38.8,11.4l0.7-0.2
				c0.5-0.1,0.8-0.2,0.9-0.3c0.1-0.1,0.2-0.2,0.2-0.3c0-0.1,0-0.2,0-0.4c0-0.2-0.1-0.3-0.2-0.4c-0.1-0.1-0.2-0.1-0.4-0.1
				c-0.1,0-0.3,0.1-0.7,0.2l-0.8,0.2L38.8,11.4z"/>
			<path class="st0" d="M45.7,13l-0.4-4.1l-1.5,0.1l-0.1-0.8l3.9-0.3l0.1,0.8l-1.5,0.1l0.4,4.1L45.7,13z"/>
			<path class="st0" d="M50,12.9l0.2-5l1,0l-0.2,5L50,12.9z"/>
			<path class="st0" d="M53.2,13L54,8.1l3.4,0.5l-0.1,0.8l-2.4-0.4l-0.2,1.2l2,0.3l-0.1,0.8l-2-0.3l-0.3,2.1L53.2,13z"/>
			<path class="st0" d="M58.5,14.1l1.4-4.8l1,0.3l-1.4,4.8L58.5,14.1z"/>
			<path class="st0" d="M61.6,15l2-4.6l3.4,1.5l-0.3,0.8l-2.5-1.1l-0.4,1l2.3,1l-0.3,0.8l-2.3-1l-0.5,1.2l2.5,1.1L65,16.5L61.6,15z"
				/>
			<path class="st0" d="M69.5,13.3l1.5,1c0.3,0.2,0.6,0.4,0.7,0.6c0.2,0.2,0.3,0.5,0.4,0.8c0.1,0.3,0,0.6,0,0.9
				c-0.1,0.3-0.3,0.7-0.5,1.1c-0.2,0.3-0.5,0.6-0.7,0.8c-0.3,0.2-0.6,0.4-0.9,0.4c-0.2,0-0.5,0-0.8-0.1c-0.2-0.1-0.5-0.2-0.8-0.4
				l-1.6-1L69.5,13.3z M69.9,14.6l-1.8,2.8l0.6,0.4c0.2,0.2,0.4,0.3,0.5,0.3c0.2,0.1,0.3,0.1,0.5,0c0.1,0,0.3-0.1,0.5-0.3
				c0.2-0.1,0.4-0.4,0.6-0.7c0.2-0.3,0.3-0.6,0.4-0.8c0.1-0.2,0.1-0.4,0-0.6c0-0.2-0.1-0.3-0.3-0.4c-0.1-0.1-0.3-0.3-0.7-0.5
				L69.9,14.6z"/>
		</g>
		<g>
			<path class="st0" d="M27.6,81l0.6-0.6l1.6,1.5l-1.3,1.4c-0.3,0-0.6-0.1-1-0.2c-0.4-0.2-0.7-0.4-1-0.7c-0.4-0.4-0.6-0.7-0.8-1.2
				c-0.1-0.4-0.1-0.8,0-1.3c0.1-0.4,0.4-0.8,0.7-1.2c0.4-0.4,0.7-0.6,1.2-0.8c0.4-0.1,0.9-0.2,1.3,0c0.3,0.1,0.7,0.3,1,0.6
				c0.4,0.4,0.7,0.8,0.8,1.3c0.1,0.4,0,0.8-0.2,1.2l-0.9-0.5c0.1-0.2,0.2-0.5,0.1-0.7c0-0.2-0.2-0.5-0.4-0.6c-0.3-0.3-0.7-0.4-1-0.4
				c-0.4,0-0.8,0.2-1.1,0.6c-0.4,0.4-0.6,0.8-0.6,1.2c0,0.4,0.1,0.7,0.4,1c0.2,0.1,0.3,0.3,0.5,0.3c0.2,0.1,0.4,0.1,0.6,0.2l0.4-0.5
				L27.6,81z"/>
			<path class="st0" d="M32.8,81.3l0.9,0.5l-1.4,2.3c-0.2,0.4-0.4,0.6-0.4,0.7c-0.1,0.2-0.1,0.4,0,0.6c0.1,0.2,0.2,0.4,0.5,0.5
				c0.2,0.1,0.5,0.2,0.6,0.2c0.2,0,0.3-0.1,0.4-0.2s0.3-0.4,0.5-0.7l1.4-2.3l0.9,0.5l-1.4,2.2c-0.3,0.5-0.6,0.9-0.7,1
				c-0.2,0.2-0.4,0.3-0.6,0.4c-0.2,0.1-0.4,0.1-0.7,0c-0.3,0-0.6-0.2-0.9-0.4c-0.4-0.2-0.7-0.5-0.8-0.7c-0.2-0.2-0.2-0.4-0.3-0.7
				c0-0.2,0-0.4,0-0.6c0.1-0.3,0.3-0.7,0.6-1.1L32.8,81.3z"/>
			<path class="st0" d="M40.6,90.5l-1-0.4l0-1.2l-1.9-0.7l-0.8,0.9l-1-0.4l3.5-4l1,0.4L40.6,90.5z M39.5,88l0-2l-1.3,1.5L39.5,88z"
				/>
			<path class="st0" d="M43.1,91.1l0.7-4.9l2.1,0.3c0.5,0.1,0.9,0.2,1.1,0.3c0.2,0.1,0.4,0.3,0.5,0.6c0.1,0.2,0.1,0.5,0.1,0.8
				c-0.1,0.4-0.2,0.7-0.5,0.9c-0.3,0.2-0.6,0.3-1,0.3c0.2,0.2,0.4,0.3,0.5,0.5c0.1,0.2,0.3,0.5,0.4,0.9l0.5,1l-1.2-0.2l-0.6-1.2
				c-0.2-0.4-0.3-0.7-0.4-0.8c-0.1-0.1-0.2-0.2-0.3-0.2c-0.1-0.1-0.3-0.1-0.5-0.1l-0.2,0l-0.3,2L43.1,91.1z M44.5,88.4l0.7,0.1
				c0.5,0.1,0.8,0.1,0.9,0.1c0.1,0,0.2-0.1,0.3-0.2c0.1-0.1,0.1-0.2,0.2-0.4c0-0.2,0-0.3-0.1-0.4c-0.1-0.1-0.2-0.2-0.3-0.2
				c-0.1,0-0.3-0.1-0.7-0.1l-0.8-0.1L44.5,88.4z"/>
			<path class="st0" d="M54.5,91.6l-1.1,0.1l-0.5-1.1l-2,0.1l-0.4,1.1l-1.1,0.1l1.7-5l1.1-0.1L54.5,91.6z M52.5,89.7l-0.8-1.8
				l-0.6,1.9L52.5,89.7z"/>
			<path class="st0" d="M57,91.2l-1.2-4.8l0.9-0.2l2.8,2.7l-0.8-3.2l0.9-0.2l1.2,4.8l-1,0.2l-2.7-2.6l0.8,3.1L57,91.2z"/>
			<path class="st0" d="M64.7,88.7l-1.7-3.7l-1.3,0.6l-0.4-0.8l3.6-1.7l0.4,0.8l-1.3,0.6l1.7,3.7L64.7,88.7z"/>
			<path class="st0" d="M69.1,86.3l-2.9-4l3-2.1l0.5,0.7l-2.2,1.5l0.6,0.9l2-1.4l0.5,0.7l-2,1.4l0.8,1.1l2.3-1.6l0.5,0.7L69.1,86.3z
				"/>
			<path class="st0" d="M74.3,82.3l-3.6-3.4l2.6-2.6l0.6,0.6l-1.9,1.9l0.8,0.8l1.7-1.8l0.6,0.6l-1.7,1.8l1,0.9l1.9-2l0.6,0.6
				L74.3,82.3z"/>
		</g>
		<g>
			<path class="st1" d="M66.1,75c-1.2-0.7-2.4-1.4-3.6-2c2.2-3.2,3.9-6.8,5-10.7l-2.9-0.8c-1.1,3.8-2.8,7.3-5,10.4
				c-2.8-1-5.8-1.6-8.8-1.7l0.1-8.2l-3,0l-0.1,8.2c-3,0.1-5.9,0.7-8.7,1.7c-2.1-3-3.8-6.5-4.9-10.3l-2.9,0.8
				c1.1,3.9,2.8,7.5,4.9,10.6c-1.3,0.6-2.6,1.3-3.8,2.1c-4.7-3.3-8.5-7.9-10.8-13.6l-2.8,1.1c5,12.6,16.9,20.7,30.4,20.7
				c13.6,0,25.5-8.2,30.5-20.8L77,61.3C74.7,67,70.9,71.8,66.1,75z M63.2,76.8c-1.9,1-3.9,1.8-6,2.4c1.2-1.1,2.4-2.3,3.4-3.6
				C61.5,75.9,62.4,76.3,63.2,76.8z M57.7,74.4c-2,2.3-4.2,4.2-6.7,5.8c-0.1,0-0.2,0-0.3,0l0.1-7C53.1,73.3,55.4,73.7,57.7,74.4z
				 M47.8,73.2l-0.1,6.9c-2.5-1.6-4.7-3.5-6.6-5.7C43.2,73.7,45.5,73.3,47.8,73.2z M38.1,75.5c1.1,1.4,2.3,2.6,3.6,3.8
				c-2.2-0.6-4.3-1.4-6.2-2.4C36.3,76.3,37.2,75.9,38.1,75.5z"/>
			<path class="st1" d="M32.5,24.2c1.4,0.9,2.8,1.6,4.3,2.3c-2.8,3.9-4.9,8.3-6.2,13l2.9,0.8c1.2-4.6,3.4-9,6.2-12.7
				c2.6,0.8,5.3,1.3,8.1,1.5v10.8h3V29c2.8-0.1,5.6-0.6,8.2-1.5c2.8,3.7,5,8.1,6.2,12.8l2.9-0.8c-1.3-4.8-3.4-9.3-6.2-13.1
				c1.4-0.6,2.8-1.4,4.1-2.2c5.5,3.8,9.8,9.4,11.7,16.1l2.9-0.8c-4-13.9-16.9-23.6-31.4-23.6c-14.4,0-27.3,9.6-31.4,23.5l2.9,0.9
				C22.8,33.5,27,27.9,32.5,24.2z M35.4,22.4c2.4-1.3,5-2.2,7.7-2.8c-1.6,1.3-3.1,2.8-4.4,4.4C37.6,23.5,36.5,23,35.4,22.4z
				 M41.8,25c1.8-2,3.8-3.7,6-5.1V26C45.7,25.9,43.7,25.5,41.8,25z M50.8,26v-6.2c2.2,1.4,4.3,3.2,6.1,5.2
				C55,25.5,52.9,25.9,50.8,26z M60,23.9c-1.3-1.6-2.8-3-4.3-4.3c2.6,0.6,5.1,1.5,7.5,2.8C62.1,23,61.1,23.5,60,23.9z"/>
		</g>
		<g>
			<polygon class="st0" points="19.2,22.4 19.9,23.8 21.4,24 20.3,25.1 20.6,26.6 19.2,25.9 17.8,26.6 18.1,25.1 16.9,24 18.5,23.8 
							"/>
		</g>
		<g>
			<polygon class="st0" points="80.4,22.4 81.1,23.8 82.6,24 81.5,25.1 81.8,26.6 80.4,25.9 79,26.6 79.2,25.1 78.1,24 79.7,23.8 
							"/>
		</g>
		<g>
			<polygon class="st0" points="19.2,72.2 19.9,73.6 21.4,73.8 20.3,74.9 20.6,76.5 19.2,75.7 17.8,76.5 18.1,74.9 16.9,73.8 
				18.5,73.6 			"/>
		</g>
		<g>
			<polygon class="st0" points="80.4,72.2 81.1,73.6 82.6,73.8 81.5,74.9 81.8,76.5 80.4,75.7 79,76.5 79.2,74.9 78.1,73.8 
				79.7,73.6 			"/>
		</g>
		<g>
			<path class="st0" d="M67.4,47.1c-0.5,0-0.9,0.3-1.1,0.8c-0.2,0.5-0.3,1.5-0.3,2.8c0,1.4,0.1,2.3,0.4,2.9s0.6,0.8,1.1,0.8
				c0.3,0,0.6-0.1,0.8-0.3c0.2-0.2,0.4-0.6,0.5-1c0.1-0.5,0.2-1.2,0.2-2.2c0-1.5-0.1-2.4-0.4-2.9C68.2,47.4,67.9,47.1,67.4,47.1z"/>
			<path class="st0" d="M28.8,48.4c-0.4,0.5-0.6,1.3-0.6,2.4c0,1.1,0.2,1.9,0.6,2.4c0.4,0.5,1,0.7,1.7,0.7c0.7,0,1.3-0.2,1.7-0.7
				c0.4-0.5,0.6-1.3,0.6-2.5c0-1-0.2-1.8-0.6-2.3c-0.4-0.5-1-0.7-1.7-0.7C29.8,47.6,29.3,47.9,28.8,48.4z"/>
			<path class="st0" d="M77.5,47.1c-0.5,0-0.9,0.3-1.1,0.8c-0.2,0.5-0.3,1.5-0.3,2.8c0,1.4,0.1,2.3,0.4,2.9s0.6,0.8,1.1,0.8
				c0.3,0,0.6-0.1,0.8-0.3c0.2-0.2,0.4-0.6,0.5-1c0.1-0.5,0.2-1.2,0.2-2.2c0-1.5-0.1-2.4-0.4-2.9C78.4,47.4,78,47.1,77.5,47.1z"/>
			<path class="st0" d="M50,0C22.4,0,0,22.4,0,50c0,27.6,22.4,50,50,50s50-22.4,50-50C100,22.4,77.6,0,50,0z M85.6,49.8
				c-0.5,0.2-1,0.5-1.7,0.7V48c1-0.3,1.8-0.7,2.4-1.2c0.6-0.5,1-1,1.3-1.7h2.5v11.1h-3.1v-7.3C86.6,49.3,86.1,49.6,85.6,49.8z
				 M82,50.7c0,2-0.3,3.4-1,4.4c-0.7,0.9-1.8,1.4-3.5,1.4c-0.9,0-1.7-0.1-2.2-0.4c-0.6-0.3-1-0.7-1.4-1.3c-0.3-0.4-0.5-1-0.6-1.7
				c-0.1-0.7-0.2-1.5-0.2-2.3c0-2.1,0.4-3.5,1.1-4.4c0.7-0.8,1.9-1.2,3.4-1.2c0.7,0,1.3,0.1,1.8,0.3c0.5,0.2,0.9,0.4,1.2,0.7
				c0.3,0.3,0.5,0.6,0.7,0.9c0.2,0.3,0.3,0.7,0.4,1.1C81.9,48.9,82,49.8,82,50.7z M71.9,50.7c0,2-0.3,3.4-1,4.4
				c-0.7,0.9-1.8,1.4-3.5,1.4c-0.9,0-1.7-0.1-2.2-0.4c-0.6-0.3-1-0.7-1.4-1.3c-0.3-0.4-0.5-1-0.6-1.7c-0.1-0.7-0.2-1.5-0.2-2.3
				c0-2.1,0.4-3.5,1.1-4.4c0.7-0.8,1.9-1.2,3.4-1.2c0.7,0,1.3,0.1,1.8,0.3c0.5,0.2,0.9,0.4,1.2,0.7c0.3,0.3,0.5,0.6,0.7,0.9
				c0.2,0.3,0.3,0.7,0.4,1.1C71.8,48.9,71.9,49.8,71.9,50.7z M52.8,47.8v-2.6h8.9v2.1c-0.8,0.7-1.4,1.5-1.9,2.3
				c-0.6,1-1.1,2.1-1.5,3.3c-0.3,0.9-0.5,2.1-0.6,3.3h-3c0.2-1.8,0.6-3.3,1.1-4.5c0.5-1.2,1.3-2.5,2.4-3.9H52.8z M48,47.5
				c-0.2-0.2-0.6-0.4-0.9-0.4c-0.4,0-0.7,0.1-1,0.4c-0.2,0.2-0.4,0.7-0.5,1.3l-3-0.2c0.1-0.9,0.3-1.5,0.7-2c0.3-0.5,0.8-0.8,1.3-1.1
				c0.6-0.3,1.4-0.4,2.4-0.4c1.1,0,1.9,0.1,2.5,0.4c0.6,0.2,1.1,0.6,1.4,1.1c0.3,0.5,0.5,1.1,0.5,1.7c0,0.7-0.2,1.3-0.6,1.9
				c-0.4,0.6-1.1,1.3-2.1,2c-0.6,0.4-1,0.7-1.2,0.9c-0.2,0.2-0.4,0.4-0.7,0.7h4.7v2.5h-9.1c0.1-0.9,0.4-1.7,1-2.5
				c0.5-0.8,1.5-1.7,3-2.8c0.9-0.7,1.5-1.2,1.7-1.5c0.2-0.3,0.4-0.7,0.4-1C48.4,48,48.2,47.8,48,47.5z M36.2,50.7
				c0,1.3-0.2,2.3-0.6,3.1c-0.4,0.8-1.1,1.5-1.9,1.9c-0.8,0.5-1.8,0.7-3,0.7c-1.2,0-2.3-0.2-3.1-0.6c-0.8-0.4-1.5-1-2-1.9
				c-0.5-0.9-0.8-1.9-0.8-3.2c0-1.8,0.5-3.2,1.5-4.2s2.4-1.5,4.2-1.5c1.8,0,3.2,0.5,4.2,1.5C35.7,47.5,36.2,48.9,36.2,50.7z
				 M19.9,52.4c-0.2-0.2-0.8-0.4-1.7-0.6c-1.5-0.3-2.5-0.8-3.2-1.3c-0.6-0.6-1-1.3-1-2.1c0-0.6,0.2-1.1,0.5-1.6s0.8-0.9,1.5-1.2
				c0.7-0.3,1.6-0.4,2.7-0.4c1.4,0,2.5,0.3,3.2,0.8c0.7,0.5,1.2,1.3,1.3,2.5L20,48.5c-0.1-0.5-0.3-0.9-0.5-1.1
				c-0.3-0.2-0.6-0.3-1.1-0.3c-0.4,0-0.7,0.1-0.9,0.2c-0.2,0.2-0.3,0.4-0.3,0.6c0,0.2,0.1,0.3,0.2,0.5c0.2,0.1,0.5,0.3,1.1,0.4
				c1.5,0.3,2.5,0.6,3.2,1c0.6,0.3,1.1,0.7,1.4,1.2c0.3,0.5,0.4,1,0.4,1.6c0,0.7-0.2,1.3-0.6,1.9s-0.9,1-1.6,1.3
				c-0.7,0.3-1.6,0.5-2.6,0.5c-1.9,0-3.1-0.4-3.9-1.1c-0.7-0.7-1.1-1.6-1.2-2.7l3.2-0.2c0.1,0.5,0.2,0.9,0.4,1.2
				c0.3,0.4,0.8,0.7,1.5,0.7c0.5,0,0.9-0.1,1.1-0.3c0.3-0.2,0.4-0.5,0.4-0.8C20.3,52.8,20.2,52.6,19.9,52.4z M11.8,45.3v10.9H8.5
				V45.3H11.8z M50,4.8c20.9,0,38.6,14.3,43.7,33.7H6.3C11.4,19.2,29.1,4.8,50,4.8z M50,95.2c-20.3,0-37.6-13.5-43.2-32h86.4
				C87.6,81.7,70.3,95.2,50,95.2z"/>
		</g>
	</g>
</g>
</svg>
