<?xml version="1.0" encoding="utf-8"?>
<!-- Generator: Adobe Illustrator 25.3.1, SVG Export Plug-In . SVG Version: 6.00 Build 0)  -->
<svg version="1.1" id="圖層_1" xmlns="http://www.w3.org/2000/svg" xmlns:xlink="http://www.w3.org/1999/xlink" x="0px" y="0px"
	 viewBox="0 0 99.3 99.3" style="enable-background:new 0 0 99.3 99.3;" xml:space="preserve">
<style type="text/css">
	.st0{fill:#1C1C80;}
</style>
<g id="组_1738" transform="translate(-37.097 -238.02)">
	<g id="组_1737" transform="translate(37.097 238.02)">
		<path id="路径_2999" class="st0" d="M33.6,74.7c-0.2-0.5-0.6-0.8-1.1-0.8h-8.8c-8.9,0-16.2,7.2-16.2,16.2v8
			c0,0.7,0.5,1.2,1.2,1.2c0,0,0,0,0,0h32.7c0.7,0,1.2-0.5,1.2-1.2c0-0.2,0-0.3-0.1-0.4L33.6,74.7z M75.7,73.9h-8.8
			c-0.5,0-0.9,0.3-1.1,0.8l-8.9,23c-0.2,0.6,0.1,1.3,0.7,1.6c0.1,0.1,0.3,0.1,0.4,0.1h32.7c0.7,0,1.2-0.5,1.2-1.2l0,0v-8
			C91.9,81.2,84.6,73.9,75.7,73.9z"/>
		<path id="路径_3000" class="st0" d="M19.4,37.6h-4.9c-1.7,0-3.1,1.3-3.1,3s1.3,3.1,3,3.1c0,0,0.1,0,0.1,0h4.9
			c1.7,0,3.1-1.3,3.1-3s-1.3-3.1-3-3.1C19.4,37.6,19.4,37.6,19.4,37.6z M49.7,10.9c1.7,0,3-1.4,3-3c0,0,0,0,0,0V3c0-1.7-1.4-3-3-3
			c-1.7,0-3,1.4-3,3v4.9C46.6,9.6,48,10.9,49.7,10.9L49.7,10.9L49.7,10.9z M26.9,16l-3.4-3.4c-1.2-1.2-3.1-1.2-4.3,0
			c-1.2,1.2-1.2,3.1,0,4.3l0,0l3.4,3.4c1.2,1.2,3.1,1.2,4.3,0C28.1,19.1,28.1,17.2,26.9,16L26.9,16z M49.7,74.6
			c-2,0-3.6,1.6-3.6,3.6v17c0,2,1.6,3.6,3.6,3.6s3.6-1.6,3.6-3.6l0,0v-17C53.3,76.2,51.7,74.6,49.7,74.6
			C49.7,74.6,49.7,74.6,49.7,74.6L49.7,74.6z M80.1,12.6c-1.2-1.2-3.1-1.2-4.3,0L72.4,16c-1.2,1.2-1.2,3.1,0,4.3
			c1.2,1.2,3.1,1.2,4.3,0l3.4-3.4C81.3,15.7,81.3,13.8,80.1,12.6L80.1,12.6z M47,16.5c-9.5,1.1-18.7,10.2-19.9,19.8
			c-0.8,6.8,1.5,13.6,6.2,18.5c2.6,2.7,4.1,6.3,4.1,10.1l0,0c0,1.9,1.6,3.5,3.5,3.5c0,0,0,0,0,0h17.4c1.9,0,3.5-1.6,3.5-3.5
			c0,0,0,0,0,0c0-3.7,1.4-7.3,4-10c8.8-8.9,8.6-23.3-0.3-32C60.6,18,53.8,15.7,47,16.5L47,16.5z M52.7,48v8.4c0,1.7-1.4,3-3,3
			c-1.7,0-3-1.4-3-3l0,0V48c-3.5-1.1-6.1-4-6.1-7.4c0-1.7,1.4-3,3-3c1.7,0,3,1.4,3,3c0,0.9,1.3,1.8,3,1.8s3-1,3-1.8c0-1.7,1.4-3,3-3
			c1.7,0,3,1.4,3,3C58.8,44,56.2,46.9,52.7,48L52.7,48z M84.8,37.6H80c-1.7,0-3.1,1.3-3.1,3c0,1.7,1.3,3.1,3,3.1c0,0,0.1,0,0.1,0
			h4.9c1.7,0,3.1-1.3,3.1-3c0-1.7-1.3-3.1-3-3.1C84.9,37.6,84.9,37.6,84.8,37.6z"/>
	</g>
</g>
</svg>
