<svg xmlns="http://www.w3.org/2000/svg" width="84.419" height="99.345" viewBox="0 0 84.419 99.345">
  <g id="组_1738" data-name="组 1738" transform="translate(-37.097 -238.02)">
    <g id="组_1737" data-name="组 1737" transform="translate(37.097 238.02)">
      <path id="路径_2999" data-name="路径 2999" d="M63.214,269.279a1.213,1.213,0,0,0-1.13-.774H53.27A16.173,16.173,0,0,0,37.1,284.678V292.7a1.213,1.213,0,0,0,1.213,1.213h32.7a1.211,1.211,0,0,0,1.13-1.652Zm42.129-.774H96.549a1.21,1.21,0,0,0-1.13.774l-8.926,22.981a1.214,1.214,0,0,0,1.133,1.652H120.3a1.213,1.213,0,0,0,1.213-1.213v-8.021A16.173,16.173,0,0,0,105.343,268.505Z" transform="translate(-37.097 -194.566)" fill="#1c1c80"/>
      <path id="路径_3000" data-name="路径 3000" d="M46.631,275.614H41.78a3.032,3.032,0,1,0,0,6.063h4.851a3.032,3.032,0,1,0,0-6.063Zm30.318-26.68A3.031,3.031,0,0,0,79.98,245.9v-4.851a3.032,3.032,0,0,0-6.064,0V245.9A3.033,3.033,0,0,0,76.948,248.934Zm-22.724,5.125-3.43-3.43a3.031,3.031,0,1,0-4.288,4.286l3.43,3.432a3.032,3.032,0,0,0,4.288-4.288Zm22.729,58.559a3.639,3.639,0,0,0-3.638,3.638l0,16.958a3.638,3.638,0,1,0,7.276,0l0-16.958A3.638,3.638,0,0,0,76.953,312.618Zm30.436-61.991a3.033,3.033,0,0,0-4.288,0l-3.43,3.43a3.032,3.032,0,0,0,4.288,4.288l3.43-3.432A3.033,3.033,0,0,0,107.389,250.627Zm-33.075,3.912c-9.549,1.079-18.739,10.221-19.864,19.767a22.576,22.576,0,0,0,6.226,18.5,14.5,14.5,0,0,1,4.072,10.1v0a3.486,3.486,0,0,0,3.488,3.485H85.67a3.486,3.486,0,0,0,3.488-3.485,14.3,14.3,0,0,1,3.995-10.024,22.655,22.655,0,0,0-18.838-38.348Zm5.666,31.5v8.368a3.032,3.032,0,1,1-6.064,0v-8.37c-3.517-1.089-6.054-3.978-6.054-7.4a3.032,3.032,0,1,1,6.064,0c0,.859,1.3,1.819,3.027,1.819s3.027-.961,3.027-1.819a3.032,3.032,0,1,1,6.064,0C86.043,282.068,83.5,284.957,79.98,286.043Zm32.137-10.429h-4.851a3.032,3.032,0,1,0,0,6.063h4.851a3.032,3.032,0,1,0,0-6.063Z" transform="translate(-34.744 -238.02)" fill="#1c1c80"/>
    </g>
  </g>
</svg>
