<svg xmlns="http://www.w3.org/2000/svg" width="97.694" height="101.923" viewBox="0 0 97.694 101.923">
  <g id="组_1742" data-name="组 1742" transform="translate(-185.039 -386.924)">
    <g id="icons" transform="translate(185.039 386.924)">
      <g id="组_1741" data-name="组 1741">
        <g id="组_1740" data-name="组 1740">
          <g id="组_1739" data-name="组 1739">
            <path id="路径_3001" data-name="路径 3001" d="M261.427,401.636h0a6.936,6.936,0,0,0-9.723-1.158l-19.612,15.367a5.549,5.549,0,0,1-3.414,1.178l-14.054.014a3.464,3.464,0,0,1-.005-6.927l11.776-.011a6.927,6.927,0,0,0-.014-13.854l-26.963.028H197.6a16.643,16.643,0,0,0-10.26,3.555l-9.62,7.551a1.389,1.389,0,0,0-.233,1.951l18.689,23.635a1.38,1.38,0,0,0,1.072.524l22.607.191,6.251.053a16.622,16.622,0,0,0,10.449-3.583l23.735-18.764A6.939,6.939,0,0,0,261.427,401.636Z" transform="translate(-165.229 -340.451)" fill="#1c1c80"/>
            <path id="路径_3002" data-name="路径 3002" d="M179.69,449.277a1.384,1.384,0,0,0-1.945-.227l-4.347,3.436a1.387,1.387,0,0,0-.227,1.948l18.243,23.07a1.381,1.381,0,0,0,1.945.227l4.347-3.436a1.387,1.387,0,0,0,.227-1.945Zm66.664-53.8a1.238,1.238,0,0,0,1.233,1.178h8.573A1.251,1.251,0,0,0,257.4,395.2a25.081,25.081,0,0,0-12.175-17.149,1.241,1.241,0,0,0-1.771,1.5A59.436,59.436,0,0,1,246.353,395.473Zm-27.085,8.578a1.237,1.237,0,0,0-1.233-1.175h-8.57a1.252,1.252,0,0,0-1.244,1.452A25.075,25.075,0,0,0,220.4,421.475a1.241,1.241,0,0,0,1.773-1.5A59.453,59.453,0,0,1,219.268,404.052Zm1.128-26A25.081,25.081,0,0,0,208.221,395.2a1.252,1.252,0,0,0,1.244,1.452h8.57a1.238,1.238,0,0,0,1.233-1.178,59.433,59.433,0,0,1,2.9-15.918A1.243,1.243,0,0,0,220.4,378.05Zm12.416-1.942c-2.364,0-6.5,7.285-7.3,19.448a1.228,1.228,0,0,0,1.255,1.264h12.089a1.227,1.227,0,0,0,1.255-1.264C239.31,383.393,235.173,376.108,232.812,376.108Zm23.347,26.769h-8.573a1.237,1.237,0,0,0-1.233,1.175,59.456,59.456,0,0,1-2.9,15.921,1.24,1.24,0,0,0,1.771,1.5A25.075,25.075,0,0,0,257.4,404.329,1.25,1.25,0,0,0,256.159,402.877Zm-17.3-.172H226.766a1.23,1.23,0,0,0-1.255,1.264c.8,12.164,4.938,19.451,7.3,19.451s6.5-7.287,7.3-19.451A1.228,1.228,0,0,0,238.855,402.705Z" transform="translate(-172.871 -376.108)" fill="#1c1c80"/>
          </g>
        </g>
      </g>
    </g>
  </g>
</svg>
