<?xml version="1.0" encoding="utf-8"?>
<!-- Generator: Adobe Illustrator 25.1.0, SVG Export Plug-In . SVG Version: 6.00 Build 0)  -->
<svg version="1.1" id="圖層_1" xmlns="http://www.w3.org/2000/svg" xmlns:xlink="http://www.w3.org/1999/xlink" x="0px" y="0px"
	 viewBox="0 0 195 164" style="enable-background:new 0 0 195 164;" xml:space="preserve">
<style type="text/css">
	.st0{enable-background:new    ;}
	.st1{fill:#FEB336;}
</style>
<g class="st0">
	<path class="st1" d="M65.4,12.8c3.5,1.6,6.7,3.7,9.7,6.2c3,2.5,5.5,5.4,7.6,8.5c2.1,3.2,3.8,6.6,4.9,10.4c1.1,3.8,1.7,7.7,1.7,11.9
		v33.5c0,5.7-1.1,11-3.2,16c-2.1,5-5,9.3-8.7,13c-3.7,3.7-8,6.5-13,8.6c-5,2.1-10.2,3.1-15.8,3.1s-10.9-1-15.8-3.1
		c-5-2.1-9.3-4.9-13-8.6c-3.7-3.7-6.6-8-8.7-13C9.1,94.3,8,89,8,83.3V49.9C8,44.3,9.1,39,11.2,34c2.1-5,5.1-9.3,8.8-13
		c3.7-3.7,8-6.6,13-8.7s10.2-3.2,15.7-3.2c1.6,0,3.3,0.1,5,0.3c1.7,0.2,3.3,0.5,4.8,0.8c-3.7,1.4-7.2,3.4-10.4,5.8
		c-3.2,2.5-6,5.3-8.4,8.5c-2.4,3.2-4.2,6.8-5.5,10.7c-1.3,3.9-2,8-2.1,12.2C32,48.1,32,48.9,32,49.9v33.5c0,2.3,0.4,4.5,1.3,6.5
		c0.9,2,2.1,3.8,3.6,5.3c1.5,1.5,3.3,2.7,5.3,3.6c2,0.9,4.2,1.3,6.5,1.3s4.5-0.4,6.5-1.3c2-0.9,3.8-2.1,5.3-3.6
		c1.5-1.5,2.7-3.3,3.6-5.3c0.9-2,1.3-4.2,1.3-6.5V49.9c0-2.3-0.4-4.4-1.3-6.4c-0.9-2-2.1-3.7-3.6-5.2c-1.5-1.5-3.3-2.7-5.3-3.6
		c-2-0.9-4.2-1.3-6.5-1.3c-4,0-7.7,1.3-10.8,3.9c2-6.2,5.4-11.5,10.2-15.9c4.9-4.4,10.5-7.3,17-8.7C65.2,12.7,65.3,12.8,65.4,12.8z"
		/>
	<path class="st1" d="M186.8,49.7V50v1v1v0.3c0,0.1,0,0.2-0.1,0.2c-0.1,0.1-0.1,0.2-0.1,0.4v0.2c0,0.4-0.1,0.8-0.2,1v0.8v0.2
		c-0.1,0.2-0.2,0.4-0.2,0.5c0,0.1-0.1,0.3-0.2,0.5c0,0.3-0.1,0.6-0.2,0.8c0,0.2-0.1,0.4-0.2,0.7v0.2v0.2v0.3
		c-0.1,0.3-0.3,0.8-0.5,1.5V60c-1.2,4.3-3.1,8.2-5.7,11.9c-2.6,3.7-5.6,6.8-9.1,9.4v0.2l-9.7,8l-10.8,9.3h36.7V123h-69.2
		c-2.5,0-4.8-0.7-6.9-2.1c-2.1-1.4-3.6-3.3-4.4-5.7c-0.2-0.5-0.4-1.1-0.5-1.6c-0.1-0.5-0.2-1-0.3-1.6c-0.2-4,1.2-7.4,4.3-10.2
		l19-16.2v-0.2l27.4-23.3c0.4-0.4,1-0.9,1.6-1.3c1.4-1.5,2.6-3.2,3.4-4.9c0.9-1.7,1.4-3.7,1.5-5.9v-0.5c0.1-0.1,0.2-0.2,0.2-0.3
		v-0.8c0-0.2-0.1-0.4-0.2-0.5v-0.8v-0.3v-0.3v-0.5c-0.1-0.1-0.2-0.3-0.2-0.5v-0.3l-0.2-0.2v-0.2c0-0.2,0-0.4-0.1-0.5
		c-0.1-0.1-0.1-0.2-0.1-0.3c-0.1-0.1-0.2-0.2-0.2-0.3l-0.2-0.3c0-0.3-0.1-0.6-0.3-0.8c0-0.2-0.1-0.3-0.2-0.3c0-0.2-0.1-0.4-0.2-0.5
		v-0.2c0-0.1-0.1-0.3-0.3-0.5c0-0.2-0.2-0.5-0.5-0.8V40l-0.3-0.3c0-0.1-0.1-0.2-0.2-0.3c0-0.1,0-0.2-0.1-0.2c-0.1,0-0.1-0.1-0.1-0.2
		c-0.1-0.1-0.2-0.2-0.2-0.3c-0.1-0.1-0.1-0.2-0.2-0.3c0-0.1,0-0.2-0.1-0.2c-0.1,0-0.1-0.1-0.1-0.2c-0.2-0.2-0.4-0.4-0.7-0.5
		l-0.2-0.3c-0.1-0.1-0.2-0.2-0.3-0.2l-0.5-0.7l-0.3-0.2c-0.4-0.3-0.8-0.7-1.1-1s-0.8-0.6-1.3-0.8l-0.3-0.3c-0.1,0-0.2-0.1-0.3-0.2
		c-0.1,0-0.2,0-0.2-0.1c0-0.1-0.1-0.1-0.2-0.1c-0.3-0.1-0.6-0.2-0.9-0.3c-0.3-0.1-0.6-0.2-0.9-0.3c-0.1-0.1-0.3-0.2-0.5-0.2
		c0-0.1-0.1-0.2-0.3-0.2h-0.2c-0.1-0.1-0.2-0.2-0.3-0.2c-0.2-0.1-0.4-0.2-0.7-0.2c-0.2,0-0.4-0.1-0.7-0.2h-0.5
		c-0.1-0.1-0.3-0.2-0.5-0.2h-0.5h-0.7c-0.2-0.1-0.5-0.2-1-0.2c-2.1,0-4,0.4-5.8,1.1c-1.8,0.8-3.5,1.8-5,3c2-6.2,5.4-11.6,10.2-16
		c4.9-4.4,10.6-7.2,17.1-8.4c7,3.2,12.7,8,17.1,14.4c4.4,6.4,6.7,13.6,7,21.7V49.7z M105.6,53.1c0-0.2,0-0.5-0.1-0.8
		c-0.1-0.3-0.1-0.7-0.1-1v-1v-2.1c0.1-5.5,1.3-10.6,3.4-15.4c2.2-4.8,5.1-9,8.8-12.5c3.7-3.6,7.9-6.4,12.8-8.4
		c4.9-2.1,10.1-3.1,15.7-3.1c3.6,0,6.9,0.4,10,1.1c-3.8,1.4-7.4,3.4-10.7,5.8c-3.3,2.5-6.1,5.3-8.4,8.6c-2.4,3.3-4.2,6.9-5.5,10.8
		c-1.3,3.9-2,8.1-2,12.5v0.2c-0.1,0.3-0.2,0.9-0.2,1.6c0,1.9,0.3,3.7,1,5.4c0.7,1.8,1.5,3.3,2.6,4.8l-18.2,15.6
		c-2.3-2.6-4.3-5.8-6.1-9.7c0-0.1-0.1-0.4-0.3-0.8c-0.1-0.1-0.2-0.2-0.2-0.3c0-0.1-0.1-0.3-0.2-0.5c0-0.1,0-0.2-0.1-0.3
		c-0.1-0.1-0.1-0.3-0.1-0.5c-0.2-0.2-0.4-0.5-0.4-0.8c-0.1-0.3-0.1-0.6-0.2-0.8c0-0.3-0.1-0.6-0.3-0.8c-0.2-0.9-0.4-1.7-0.6-2.5
		c-0.2-0.8-0.3-1.6-0.4-2.5c0-0.1,0-0.2-0.1-0.3c-0.1-0.1-0.1-0.2-0.1-0.3v-0.3c0-0.2-0.1-0.4-0.2-0.5v-0.8V53.1z M108.7,65.4
		c-1.9-4.4-3-9.1-3.3-14.1C105.8,56.4,106.9,61.1,108.7,65.4z M162.7,47.2c0-0.2,0-0.4-0.1-0.7c-0.1-0.2-0.1-0.4-0.1-0.7v-0.2
		l-0.2-0.3c-0.3-1.9-1-3.6-2.1-5.1c-1-1.5-2.3-2.9-3.9-4c-1.5-1.1-3.2-2-5-2.7c-1.8-0.7-3.6-1-5.3-1c-4.2,0-7.8,1.4-10.8,4.1v-0.2
		c1.9-1.5,3.7-2.6,5.6-3.1c1.9-0.5,3.9-0.8,6.2-0.8h0.7c0.1,0,0.2,0,0.2,0.1c0.1,0.1,0.1,0.1,0.2,0.1h0.5c0.2,0,0.3,0,0.3,0.1
		c0,0.1,0.1,0.1,0.2,0.1c0.2,0,0.7,0.1,1.3,0.3h0.3h0.2c0.2,0.2,0.5,0.3,0.8,0.3c0.3,0.1,0.6,0.2,0.9,0.3c0.3,0.1,0.6,0.3,0.9,0.5
		c0.1,0,0.2,0.1,0.3,0.2c0.1,0,0.2,0.1,0.3,0.2l0.3,0.2c0.5,0.2,1,0.5,1.3,0.8s0.7,0.7,1.1,1l0.3,0.3c0.2,0,0.4,0.2,0.5,0.5
		c0.1,0,0.2,0,0.2,0.1c0,0.1,0.1,0.1,0.2,0.1c0,0.1,0,0.2,0.1,0.2c0.1,0,0.1,0.1,0.1,0.2c0.3,0.1,0.5,0.3,0.7,0.7
		c0.1,0.1,0.2,0.2,0.2,0.3l0.5,0.5l0.2,0.3c0.1,0.1,0.2,0.2,0.2,0.2c0,0.1,0.1,0.2,0.3,0.4v0.2c0.2,0.2,0.4,0.4,0.4,0.5
		c0.1,0.1,0.1,0.3,0.2,0.5v0.2c0.1,0.1,0.2,0.3,0.2,0.5c0.1,0.1,0.2,0.2,0.2,0.3l0.2,0.3l0.3,0.7c0,0.1,0.1,0.3,0.2,0.5
		c0,0.1,0,0.2,0.1,0.2c0.1,0,0.1,0.1,0.1,0.2c0,0.2,0,0.4,0.1,0.4c0.1,0.1,0.1,0.2,0.1,0.4v0.3c0.1,0.2,0.2,0.5,0.3,0.8v0.5V47.2z
		 M186,57.6c0,0.3-0.1,0.5-0.2,0.7C185.9,58,186,57.8,186,57.6c0.1-0.2,0.2-0.5,0.2-0.8C186.1,57.1,186.1,57.3,186,57.6z"/>
</g>
</svg>
