<?xml version="1.0" encoding="utf-8"?>
<!-- Generator: Adobe Illustrator 25.1.0, SVG Export Plug-In . SVG Version: 6.00 Build 0)  -->
<svg version="1.1" id="圖層_1" xmlns="http://www.w3.org/2000/svg" xmlns:xlink="http://www.w3.org/1999/xlink" x="0px" y="0px"
	 viewBox="0 0 177 164" style="enable-background:new 0 0 177 164;" xml:space="preserve">
<style type="text/css">
	.st0{enable-background:new    ;}
	.st1{fill:#FEB336;}
</style>
<g class="st0">
	<path class="st1" d="M65.4,12.8c3.5,1.6,6.7,3.7,9.7,6.2c3,2.5,5.5,5.4,7.6,8.5c2.1,3.2,3.8,6.6,4.9,10.4c1.1,3.8,1.7,7.7,1.7,11.9
		v33.5c0,5.7-1.1,11-3.2,16c-2.1,5-5,9.3-8.7,13c-3.7,3.7-8,6.5-13,8.6c-5,2.1-10.2,3.1-15.8,3.1s-10.9-1-15.8-3.1
		c-5-2.1-9.3-4.9-13-8.6c-3.7-3.7-6.6-8-8.7-13C9.1,94.3,8,89,8,83.3V49.9C8,44.3,9.1,39,11.2,34c2.1-5,5.1-9.3,8.8-13
		c3.7-3.7,8-6.6,13-8.7s10.2-3.2,15.7-3.2c1.6,0,3.3,0.1,5,0.3c1.7,0.2,3.3,0.5,4.8,0.8c-3.7,1.4-7.2,3.4-10.4,5.8
		c-3.2,2.5-6,5.3-8.4,8.5c-2.4,3.2-4.2,6.8-5.5,10.7c-1.3,3.9-2,8-2.1,12.2C32,48.1,32,48.9,32,49.9v33.5c0,2.3,0.4,4.5,1.3,6.5
		c0.9,2,2.1,3.8,3.6,5.3c1.5,1.5,3.3,2.7,5.3,3.6c2,0.9,4.2,1.3,6.5,1.3s4.5-0.4,6.5-1.3c2-0.9,3.8-2.1,5.3-3.6
		c1.5-1.5,2.7-3.3,3.6-5.3c0.9-2,1.3-4.2,1.3-6.5V49.9c0-2.3-0.4-4.4-1.3-6.4c-0.9-2-2.1-3.7-3.6-5.2c-1.5-1.5-3.3-2.7-5.3-3.6
		c-2-0.9-4.2-1.3-6.5-1.3c-4,0-7.7,1.3-10.8,3.9c2-6.2,5.4-11.5,10.2-15.9c4.9-4.4,10.5-7.3,17-8.7C65.2,12.7,65.3,12.8,65.4,12.8z"
		/>
	<path class="st1" d="M105.5,20.7c0-3.3,1.2-6.1,3.5-8.4c2.3-2.3,5.2-3.5,8.6-3.5h42.3v24.1h-30.5v13.8c5,0.7,9.9,2,14.6,4
		c4.7,2,8.9,4.7,12.5,8c3.7,3.3,6.6,7.2,8.8,11.6c2.2,4.4,3.3,9.4,3.3,14.8c0,6-1.3,11.4-4,16.2c-2.7,4.8-6.2,8.9-10.5,12.2
		c-4.3,3.3-9.2,5.9-14.6,7.7c-5.4,1.8-10.9,2.7-16.5,2.7c-1.2,0-2.4,0-3.4-0.1c-1.1-0.1-2.2-0.1-3.4-0.2c4.2-1.3,8-3.2,11.4-5.7
		c3.4-2.5,6.4-5.4,8.9-8.7c2.5-3.3,4.5-7,5.9-11.1c1.4-4,2.1-8.3,2.1-12.8l0.2-0.3c0-2.5-0.7-4.7-2.2-6.6c-1.5-1.9-3.3-3.4-5.4-4.6
		c-2.1-1.2-4.5-2.1-7-2.8c-2.5-0.7-4.9-1-7.1-1c-3.6,0-6.9,0.6-10,1.8c-3.1,1.2-5.6,2.8-7.5,4.8V20.7z M105.5,96.4
		c2,2,4.5,3.6,7.5,4.8c3.1,1.2,6.4,1.8,10,1.8c2.1,0,4.2-0.3,6.4-0.8c3.7-0.7,7-2.1,9.8-4.4c-1,3.6-2.5,7-4.7,10.2
		c-2.1,3.2-4.6,5.9-7.5,8.3c-2.8,2.4-6,4.2-9.6,5.7c-3.6,1.4-7.3,2.2-11.2,2.5c-0.2-0.1-0.4-0.2-0.5-0.2c-0.1,0-0.2-0.1-0.3-0.2
		V96.4z"/>
</g>
</svg>
