<svg xmlns="http://www.w3.org/2000/svg" width="191.059" height="105.084" viewBox="0 0 191.059 105.084">
  <g id="组_1743" data-name="组 1743" transform="translate(-18.714 -192.735)">
    <path id="路径_3003" data-name="路径 3003" d="M41.367,234.12a8.218,8.218,0,0,1-6.005-2.589L33.4,229.452a8.252,8.252,0,0,1,.343-11.668L39.2,212.63a8.271,8.271,0,0,1,11.668.343l1.963,2.082a8.263,8.263,0,0,1-.343,11.668l-5.463,5.153A8.226,8.226,0,0,1,41.367,234.12Zm3.5-17.715a2.229,2.229,0,0,0-1.531.608l-5.463,5.153a2.234,2.234,0,0,0-.1,3.155L39.74,227.4a2.235,2.235,0,0,0,3.158.092l5.463-5.153a2.235,2.235,0,0,0,.092-3.158l-1.96-2.079A2.227,2.227,0,0,0,44.867,216.4Z" transform="translate(24.606 34.933)" fill="#333"/>
    <path id="路径_3004" data-name="路径 3004" d="M43.977,244.411a8.439,8.439,0,0,1-6.16-2.654l-2.041-2.163a8.477,8.477,0,0,1,.351-11.966l14.823-13.977a8.477,8.477,0,0,1,11.966.355l2.038,2.16a8.474,8.474,0,0,1-.352,11.966l-14.82,13.977A8.445,8.445,0,0,1,43.977,244.411ZM42.2,237.625a2.449,2.449,0,0,0,3.455.1L60.474,223.75a2.445,2.445,0,0,0,.1-3.452l-2.041-2.16a2.445,2.445,0,0,0-3.452-.1L40.26,232.01a2.442,2.442,0,0,0-.1,3.452Z" transform="translate(29.21 36.84)" fill="#333"/>
    <path id="路径_3005" data-name="路径 3005" d="M48.289,244.244a8.436,8.436,0,0,1-6.16-2.651l-2.043-2.166a8.465,8.465,0,0,1,.354-11.963l10.816-10.2a8.474,8.474,0,0,1,11.963.352l2.044,2.163a8.468,8.468,0,0,1-.354,11.966l-10.816,10.2A8.44,8.44,0,0,1,48.289,244.244Zm-1.781-6.783a2.415,2.415,0,0,0,1.707.766,2.658,2.658,0,0,0,1.746-.664l10.819-10.2a2.443,2.443,0,0,0,.1-3.452l-2.041-2.166a2.445,2.445,0,0,0-3.452-.1l-10.819,10.2a2.442,2.442,0,0,0-.1,3.452Z" transform="translate(37.731 43.986)" fill="#333"/>
    <path id="路径_3006" data-name="路径 3006" d="M52.118,246.51c-.089,0-.176,0-.262,0a8.628,8.628,0,0,1-6.065-2.723l-2.121-2.252a8.692,8.692,0,0,1,.36-12.276l8.728-8.231a8.7,8.7,0,0,1,12.279.36l2.121,2.252a8.7,8.7,0,0,1-.36,12.276l-8.728,8.231A8.63,8.63,0,0,1,52.118,246.51Zm6.6-21.829a2.637,2.637,0,0,0-1.823.724l-8.728,8.231a2.666,2.666,0,0,0-.113,3.768l2.124,2.249a2.64,2.64,0,0,0,1.859.834,2.75,2.75,0,0,0,1.906-.724l8.728-8.231a2.664,2.664,0,0,0,.11-3.765l-2.121-2.252a2.652,2.652,0,0,0-1.859-.834Z" transform="translate(44.707 51.31)" fill="#333"/>
    <path id="路径_3007" data-name="路径 3007" d="M68.255,239.7a7.748,7.748,0,0,1-3.229-.7l-14.87-6.786a3.011,3.011,0,1,1,2.5-5.478l14.87,6.786a1.769,1.769,0,0,0,1.573-3.167l-8.8-4.736a3.01,3.01,0,1,1,2.851-5.3l8.8,4.733A7.79,7.79,0,0,1,68.255,239.7Z" transform="translate(58.733 53.854)" fill="#333"/>
    <path id="路径_3008" data-name="路径 3008" d="M76.174,246.464a9.1,9.1,0,0,1-3.98-.914l-8.683-4.236A3.011,3.011,0,1,1,66.15,235.9l8.683,4.236a3.157,3.157,0,0,0,3.965-1.043,3.14,3.14,0,0,0-1.01-4.5L52.242,219.765a3.011,3.011,0,0,1,3.024-5.207l25.547,14.835a9.152,9.152,0,0,1-4.638,17.072Z" transform="translate(63.38 42.38)" fill="#333"/>
    <path id="路径_3009" data-name="路径 3009" d="M79.8,244.274A9.485,9.485,0,0,1,75,242.96l-20.03-11.71a3.01,3.01,0,0,1,3.038-5.2l20.03,11.71a3.542,3.542,0,0,0,3.64-6.077L56.6,216.309a3.011,3.011,0,0,1,3.149-5.133l25.067,15.377a9.565,9.565,0,0,1-2.455,17.373A9.707,9.707,0,0,1,79.8,244.274Z" transform="translate(68.787 35.616)" fill="#333"/>
    <path id="路径_3010" data-name="路径 3010" d="M77.1,240.6a11.122,11.122,0,0,1-5.952-1.734l-9.824-6.2a3.012,3.012,0,0,1,3.214-5.094l9.824,6.2a5.176,5.176,0,0,0,5.624-8.689L62.375,213.4a3.01,3.01,0,0,1,3.327-5.016l17.611,11.686A11.207,11.207,0,0,1,77.1,240.6Z" transform="translate(81.534 29.97)" fill="#333"/>
    <path id="路径_3011" data-name="路径 3011" d="M125.782,253.68a20.137,20.137,0,0,1-11.153-3.378l-32.6-21.632a10.1,10.1,0,0,0-11.022-.089l-12.419,7.948a10.074,10.074,0,0,1-12.246-15.9l21.346-19.61a20.706,20.706,0,0,1,19.991-4.537l16.351,5a20.471,20.471,0,0,0,11.5.149,3.013,3.013,0,0,1,3.563,1.692l19.24,43.881a3.012,3.012,0,0,1-1.85,4.081l-4.581,1.448A20.255,20.255,0,0,1,125.782,253.68Zm-49.33-32.714a16.1,16.1,0,0,1,8.91,2.687l32.595,21.632a14.125,14.125,0,0,0,12.133,1.7l1.388-.438-16.9-38.543a26.548,26.548,0,0,1-12.306-.772l-16.351-5a14.666,14.666,0,0,0-14.158,3.211L50.42,225.056a4.039,4.039,0,0,0-.938,4.686,4.054,4.054,0,0,0,5.865,1.713l12.419-7.948A16.086,16.086,0,0,1,76.452,220.966Z" transform="translate(48.216 5.635)" fill="#333"/>
    <path id="路径_3012" data-name="路径 3012" d="M94.639,264.289a3.016,3.016,0,0,1-2.767-1.823L65.634,201.406a3.01,3.01,0,0,1,1.728-4.015l12.157-4.471a3.017,3.017,0,0,1,3.637,1.3L117,251.951a3.012,3.012,0,0,1-1.492,4.322l-19.759,7.8A3.007,3.007,0,0,1,94.639,264.289ZM72.42,201.945,96.25,257.4l13.771-5.436L79.232,199.44Z" transform="translate(92.365 0)" fill="#333"/>
    <path id="路径_3013" data-name="路径 3013" d="M42.3,258.872a3.037,3.037,0,0,1-1.275-.283l-12.83-6a3.01,3.01,0,0,1-1.489-3.917l18.433-42.9a3,3,0,0,1,3.205-1.79l7.816,1.156a18,18,0,0,0,8.805-.9l24.158-8.8a14.03,14.03,0,0,1,10.06.167l9.2,3.7a3.012,3.012,0,0,1-2.249,5.588l-9.2-3.7a8,8,0,0,0-5.752-.1L67.031,209.9a24.065,24.065,0,0,1-11.746,1.194l-5.526-.816L33.391,248.369l10.191,4.766a3.01,3.01,0,0,1-1.278,5.737Z" transform="translate(15.334 3.681)" fill="#333"/>
    <path id="路径_3014" data-name="路径 3014" d="M41.484,264.29a3.008,3.008,0,0,1-1.105-.211l-19.759-7.8a3.012,3.012,0,0,1-1.492-4.322L52.97,194.224a3.013,3.013,0,0,1,3.637-1.3l12.157,4.471a3.011,3.011,0,0,1,1.725,4.015L44.251,262.467A3.013,3.013,0,0,1,41.484,264.29ZM26.1,251.966,39.872,257.4,63.7,201.945,56.89,199.44Z" transform="translate(0 0)" fill="#333"/>
  </g>
</svg>
