<svg xmlns="http://www.w3.org/2000/svg" width="175.717" height="151.48" viewBox="0 0 175.717 151.48">
  <g id="组_1795" data-name="组 1795" transform="translate(80.006 -307.25)">
    <g id="组_1780" data-name="组 1780" transform="translate(16.941 393.799)">
      <path id="路径_3058" data-name="路径 3058" d="M-20.661,365.33H-32.779a3.031,3.031,0,0,1-3.03-3.03V349.738a4.611,4.611,0,0,0-4.6-4.605h-8.681a6.922,6.922,0,0,1-6.912-6.911v-6.516a3.031,3.031,0,0,1,3.03-3.03,3.031,3.031,0,0,1,3.03,3.03v6.516a.855.855,0,0,0,.852.852h8.681A10.677,10.677,0,0,1-29.75,349.738v9.533h9.089a3.031,3.031,0,0,1,3.03,3.03A3.031,3.031,0,0,1-20.661,365.33Z" transform="translate(56.006 -328.676)" fill="#333"/>
    </g>
    <g id="组_1781" data-name="组 1781" transform="translate(-11.335 420.355)">
      <path id="路径_3059" data-name="路径 3059" d="M-59.976,373.625a3.031,3.031,0,0,1-3.03-3.03V338.28a3.031,3.031,0,0,1,3.03-3.03,3.031,3.031,0,0,1,3.03,3.03V370.6A3.031,3.031,0,0,1-59.976,373.625Z" transform="translate(63.006 -335.25)" fill="#333"/>
    </g>
    <g id="组_1782" data-name="组 1782" transform="translate(-27.493 394.434)">
      <path id="路径_3060" data-name="路径 3060" d="M-63.976,393.129a3.031,3.031,0,0,1-3.03-3.03V349.261A10.677,10.677,0,0,1-56.342,338.6h8.681a.855.855,0,0,0,.852-.852v-5.882a3.031,3.031,0,0,1,3.03-3.03,3.031,3.031,0,0,1,3.03,3.03v5.882a6.919,6.919,0,0,1-6.912,6.911h-8.681a4.611,4.611,0,0,0-4.6,4.605V390.1A3.031,3.031,0,0,1-63.976,393.129Z" transform="translate(67.006 -328.833)" fill="#333"/>
    </g>
    <g id="组_1783" data-name="组 1783" transform="translate(-63.848 432.473)">
      <path id="路径_3061" data-name="路径 3061" d="M-72.976,364.506a3.031,3.031,0,0,1-3.03-3.03v-20.2a3.031,3.031,0,0,1,3.03-3.03,3.031,3.031,0,0,1,3.03,3.03v20.2A3.031,3.031,0,0,1-72.976,364.506Z" transform="translate(76.006 -338.25)" fill="#333"/>
    </g>
    <g id="组_1784" data-name="组 1784" transform="translate(-15.375 343.605)">
      <path id="路径_3062" data-name="路径 3062" d="M-40.008,374.822h-1.539a22.484,22.484,0,0,1-22.459-22.459V332.186A15.955,15.955,0,0,1-48.07,316.25h14.582a15.953,15.953,0,0,1,15.936,15.936v20.177A22.483,22.483,0,0,1-40.008,374.822Zm-8.063-52.513a9.889,9.889,0,0,0-9.876,9.877v20.177a16.417,16.417,0,0,0,16.4,16.4h1.539a16.416,16.416,0,0,0,16.4-16.4V332.186a9.889,9.889,0,0,0-9.876-9.877Z" transform="translate(64.006 -316.25)" fill="#333"/>
    </g>
    <g id="组_1785" data-name="组 1785" transform="translate(-15.375 359.763)">
      <path id="路径_3063" data-name="路径 3063" d="M-48.858,334.388H-60.976a3.031,3.031,0,0,1-3.03-3.03,3.031,3.031,0,0,1,3.03-3.03h9.089V323.28a3.031,3.031,0,0,1,3.03-3.03h28.276a3.031,3.031,0,0,1,3.03,3.03,3.031,3.031,0,0,1-3.03,3.03H-45.828v5.049A3.031,3.031,0,0,1-48.858,334.388Z" transform="translate(64.006 -320.25)" fill="#333"/>
    </g>
    <g id="组_1786" data-name="组 1786" transform="translate(-7.296 404.237)">
      <path id="路径_3064" data-name="路径 3064" d="M-47.064,343.763a18.936,18.936,0,0,1-14.166-6.536,3.024,3.024,0,0,1,.23-4.274,3.025,3.025,0,0,1,4.278.226,12.947,12.947,0,0,0,9.658,4.524,13.224,13.224,0,0,0,10.3-5.292,3.03,3.03,0,0,1,4.254-.5,3.032,3.032,0,0,1,.5,4.258A19.229,19.229,0,0,1-47.064,343.763Z" transform="translate(62.006 -331.26)" fill="#333"/>
    </g>
    <g id="组_1787" data-name="组 1787" transform="translate(25.02 420.355)">
      <path id="路径_3065" data-name="路径 3065" d="M-26.74,357.467H-50.976a3.031,3.031,0,0,1-3.03-3.03V338.28a3.031,3.031,0,0,1,3.03-3.03,3.031,3.031,0,0,1,3.03,3.03v13.128H-26.74a3.031,3.031,0,0,1,3.03,3.03A3.031,3.031,0,0,1-26.74,357.467Z" transform="translate(54.006 -335.25)" fill="#333"/>
    </g>
    <g id="组_1788" data-name="组 1788" transform="translate(49.256 307.25)">
      <path id="路径_3066" data-name="路径 3066" d="M-44.976,458.729a3.031,3.031,0,0,1-3.03-3.03V310.28a3.031,3.031,0,0,1,3.03-3.03,3.031,3.031,0,0,1,3.03,3.03V455.7A3.031,3.031,0,0,1-44.976,458.729Z" transform="translate(48.006 -307.25)" fill="#333"/>
    </g>
    <g id="组_1789" data-name="组 1789" transform="translate(49.256 315.329)">
      <path id="路径_3067" data-name="路径 3067" d="M-4.582,347.625H-44.976a3.031,3.031,0,0,1-3.03-3.03V312.28a3.031,3.031,0,0,1,3.03-3.03H-4.582a3.031,3.031,0,0,1,2.706,1.668,3.023,3.023,0,0,1-.275,3.167l-10.894,14.671,10.854,13.981a3.036,3.036,0,0,1,.331,3.191A3.034,3.034,0,0,1-4.582,347.625Zm-37.365-6.059H-10.77l-8.471-10.911a3.036,3.036,0,0,1-.04-3.664l8.677-11.682H-41.947Z" transform="translate(48.006 -309.25)" fill="#333"/>
    </g>
    <g id="组_1790" data-name="组 1790" transform="translate(-80.006 404.197)">
      <path id="路径_3068" data-name="路径 3068" d="M-76.976,385.783a3.031,3.031,0,0,1-3.03-3.03v-32.76a10.677,10.677,0,0,1,10.664-10.664h8.681a.855.855,0,0,0,.852-.852v-4.2a3.031,3.031,0,0,1,3.03-3.03,3.031,3.031,0,0,1,3.03,3.03v4.2a6.919,6.919,0,0,1-6.912,6.911h-8.681a4.611,4.611,0,0,0-4.6,4.605v32.76A3.031,3.031,0,0,1-76.976,385.783Z" transform="translate(80.006 -331.25)" fill="#333"/>
    </g>
    <g id="组_1791" data-name="组 1791" transform="translate(-39.611 404.197)">
      <path id="路径_3069" data-name="路径 3069" d="M-54.858,345.388h-8.236a6.922,6.922,0,0,1-6.911-6.911v-4.2a3.031,3.031,0,0,1,3.03-3.03,3.031,3.031,0,0,1,3.03,3.03v4.2a.855.855,0,0,0,.852.852h8.236a3.031,3.031,0,0,1,3.03,3.03A3.031,3.031,0,0,1-54.858,345.388Z" transform="translate(70.006 -331.25)" fill="#333"/>
    </g>
    <g id="组_1792" data-name="组 1792" transform="translate(-67.888 355.723)">
      <path id="路径_3070" data-name="路径 3070" d="M-55.8,374.982a21.233,21.233,0,0,1-21.207-21.207V334.354A15.125,15.125,0,0,1-61.9,319.25h12.2a15.122,15.122,0,0,1,15.1,15.1v19.422A21.233,21.233,0,0,1-55.8,374.982Zm-6.1-49.673a9.059,9.059,0,0,0-9.048,9.044v19.422A15.166,15.166,0,0,0-55.8,368.923a15.166,15.166,0,0,0,15.148-15.148V334.354a9.055,9.055,0,0,0-9.044-9.044Z" transform="translate(77.006 -319.25)" fill="#333"/>
    </g>
    <g id="组_1793" data-name="组 1793" transform="translate(-59.807 412.897)">
      <path id="路径_3071" data-name="路径 3071" d="M-61.564,345.547c-4.977,0-9.683-2.7-12.91-7.4a3.03,3.03,0,0,1,.784-4.213,3.028,3.028,0,0,1,4.209.784c4.035,5.881,11.028,6.2,15.314.707a3.028,3.028,0,0,1,4.254-.521,3.029,3.029,0,0,1,.525,4.254C-52.6,343.281-56.931,345.547-61.564,345.547Z" transform="translate(75.006 -333.404)" fill="#333"/>
    </g>
    <g id="组_1794" data-name="组 1794" transform="translate(-67.888 371.881)">
      <path id="路径_3072" data-name="路径 3072" d="M-57.819,337.388H-73.976a3.031,3.031,0,0,1-3.03-3.03,3.031,3.031,0,0,1,3.03-3.03h13.128V326.28a3.031,3.031,0,0,1,3.03-3.03h20.2a3.031,3.031,0,0,1,3.03,3.03,3.031,3.031,0,0,1-3.03,3.03H-54.789v5.049A3.031,3.031,0,0,1-57.819,337.388Z" transform="translate(77.006 -323.25)" fill="#333"/>
    </g>
  </g>
</svg>
