<svg xmlns="http://www.w3.org/2000/svg" width="131.689" height="171" viewBox="0 0 131.689 171">
  <g id="组_1755" data-name="组 1755" transform="translate(25.313 -124.25)">
    <g id="组_1747" data-name="组 1747" transform="translate(39.267 155.773)">
      <path id="路径_3030" data-name="路径 3030" d="M-5.934,176.882a2.957,2.957,0,0,1-2.087-.865,2.949,2.949,0,0,1,0-4.171L28.6,135.229a10.686,10.686,0,0,1,14.765,0,10.435,10.435,0,0,1,0,14.769L24.276,169.087a2.948,2.948,0,0,1-4.171-4.167L39.2,145.827a4.555,4.555,0,0,0,0-6.427,4.661,4.661,0,0,0-6.431,0L-3.85,176.017A2.941,2.941,0,0,1-5.934,176.882Z" transform="translate(8.885 -132.269)" fill="#333"/>
    </g>
    <g id="组_1748" data-name="组 1748" transform="translate(44.851 230.385)">
      <path id="路径_3031" data-name="路径 3031" d="M-4.515,195a2.943,2.943,0,0,1-2.795-2.009,2.947,2.947,0,0,1,1.855-3.734,34.223,34.223,0,0,0,13.424-8.33l28.811-28.811a2.948,2.948,0,0,1,4.167,4.171L12.137,185.091a40,40,0,0,1-15.716,9.753A2.88,2.88,0,0,1-4.515,195Z" transform="translate(7.464 -151.249)" fill="#333"/>
    </g>
    <g id="组_1749" data-name="组 1749" transform="translate(46.421 185.37)">
      <path id="路径_3032" data-name="路径 3032" d="M3.376,179.458A10.376,10.376,0,0,1-4.007,176.4a10.439,10.439,0,0,1,0-14.765l18.779-18.779a10.442,10.442,0,1,1,14.769,14.765L10.762,176.4A10.378,10.378,0,0,1,3.376,179.458Zm18.782-33.768a4.532,4.532,0,0,0-3.216,1.329L.164,165.8a4.541,4.541,0,0,0,0,6.427,4.656,4.656,0,0,0,6.427,0L25.374,153.45h0a4.544,4.544,0,0,0-3.216-7.76Z" transform="translate(7.065 -139.798)" fill="#333"/>
    </g>
    <g id="组_1750" data-name="组 1750" transform="translate(59.998 195.736)">
      <path id="路径_3033" data-name="路径 3033" d="M6.83,179.414A10.438,10.438,0,0,1-.553,161.595l16.2-16.2a10.686,10.686,0,0,1,14.765,0,10.435,10.435,0,0,1,0,14.769h0l-16.2,16.2A10.4,10.4,0,0,1,6.83,179.414Zm16.2-31.181a4.533,4.533,0,0,0-3.216,1.333l-16.2,16.2a4.546,4.546,0,0,0,6.427,6.431l16.2-16.2a4.546,4.546,0,0,0-3.216-7.76Zm5.3,9.847h0Z" transform="translate(3.611 -142.435)" fill="#333"/>
    </g>
    <g id="组_1751" data-name="组 1751" transform="translate(72.705 207.548)">
      <path id="路径_3034" data-name="路径 3034" d="M9.553,179.1a9.9,9.9,0,0,1-7.08-2.854C-1.6,172.18-1.273,165.23,3.2,160.756l11.742-11.738c4.474-4.474,11.42-4.8,15.488-.723a9.915,9.915,0,0,1,2.842,7.783,12,12,0,0,1-3.565,7.7L17.966,175.525A11.969,11.969,0,0,1,9.553,179.1Zm13.79-27.781a6.107,6.107,0,0,0-4.238,1.867L7.368,164.927c-2.17,2.174-2.5,5.382-.723,7.154s4.981,1.447,7.154-.727l11.738-11.738a6.137,6.137,0,0,0,1.848-3.915,4.1,4.1,0,0,0-1.124-3.235A4.049,4.049,0,0,0,23.343,151.322Z" transform="translate(0.379 -145.44)" fill="#333"/>
    </g>
    <g id="组_1752" data-name="组 1752" transform="translate(-2.75 173)">
      <path id="路径_3035" data-name="路径 3035" d="M19.778,211.729a2.948,2.948,0,0,1-2.083-5.032,14.118,14.118,0,0,0,.181-19.675L8.81,177.616a2.955,2.955,0,0,1,.031-4.128l14.682-14.769a12.066,12.066,0,0,0,1.832-14.69L-4.8,174.18A36.166,36.166,0,0,0-13.8,189.208a2.944,2.944,0,0,1-3.676,1.966,2.946,2.946,0,0,1-1.969-3.676,42.083,42.083,0,0,1,10.48-17.489l32.5-32.494a2.944,2.944,0,0,1,4.167,0,17.958,17.958,0,0,1,0,25.367L15.057,175.6l7.064,7.327a20.036,20.036,0,0,1-.259,27.934A2.925,2.925,0,0,1,19.778,211.729Z" transform="translate(19.573 -136.651)" fill="#333"/>
    </g>
    <g id="组_1753" data-name="组 1753" transform="translate(29.188 124.25)">
      <path id="路径_3036" data-name="路径 3036" d="M10.257,172.952h0a2.952,2.952,0,0,1-2.087-.865l-18.755-18.759a2.949,2.949,0,0,1,0-4.171l8.373-8.373a2.944,2.944,0,0,1,4.167,0l8.3,8.3,23.968-23.967a2.952,2.952,0,0,1,2.087-.865h0a2.949,2.949,0,0,1,2.083.865l8.373,8.377a2.944,2.944,0,0,1,0,4.167L12.341,172.087A2.95,2.95,0,0,1,10.257,172.952ZM-4.335,151.244l14.592,14.592,30.261-30.261-4.206-4.206L12.341,155.337a2.949,2.949,0,0,1-4.171,0l-8.3-8.3Z" transform="translate(11.449 -124.25)" fill="#333"/>
    </g>
    <g id="组_1754" data-name="组 1754" transform="translate(-25.313 217.115)">
      <path id="路径_3037" data-name="路径 3037" d="M32.457,226.009a2.947,2.947,0,0,1-2.08-.857l-54.822-54.563a2.959,2.959,0,0,1-.869-2.1,2.937,2.937,0,0,1,.881-2.091L-6.5,148.721a2.947,2.947,0,0,1,4.151.016L52.219,203.3a2.949,2.949,0,0,1,0,4.171L34.545,225.144A2.94,2.94,0,0,1,32.457,226.009Zm-50.632-57.5,50.628,50.384,13.511-13.511L-4.443,154.975Z" transform="translate(25.313 -147.874)" fill="#333"/>
    </g>
  </g>
</svg>
