<svg xmlns="http://www.w3.org/2000/svg" width="147.113" height="130.551" viewBox="0 0 147.113 130.551">
  <g id="组_1744" data-name="组 1744" transform="translate(-99.472 -23.317)">
    <path id="路径_3015" data-name="路径 3015" d="M146.9,52.277c-7.622,0-13.821-6.5-13.821-14.48s6.2-14.48,13.821-14.48,13.824,6.5,13.824,14.48S154.518,52.277,146.9,52.277Zm0-24.171c-4.979,0-9.032,4.349-9.032,9.691s4.053,9.688,9.032,9.688,9.034-4.346,9.034-9.688S151.878,28.107,146.9,28.107Z" transform="translate(46.033 0)" fill="#333"/>
    <path id="路径_3016" data-name="路径 3016" d="M140.291,105.549a2.4,2.4,0,0,1-2.394-2.4V60.983a2.395,2.395,0,0,1,4.79,0v42.17A2.4,2.4,0,0,1,140.291,105.549Z" transform="translate(52.639 48.319)" fill="#333"/>
    <path id="路径_3017" data-name="路径 3017" d="M130.113,52.277c-7.622,0-13.824-6.5-13.824-14.48s6.2-14.48,13.824-14.48,13.821,6.5,13.821,14.48S137.734,52.277,130.113,52.277Zm0-24.171c-4.979,0-9.032,4.349-9.032,9.691s4.053,9.688,9.032,9.688,9.032-4.346,9.032-9.688S135.094,28.107,130.113,28.107Z" transform="translate(23.038 0)" fill="#333"/>
    <path id="路径_3018" data-name="路径 3018" d="M123.507,105.549a2.4,2.4,0,0,1-2.4-2.4V60.983a2.4,2.4,0,0,1,4.792,0v42.17A2.4,2.4,0,0,1,123.507,105.549Z" transform="translate(29.644 48.319)" fill="#333"/>
    <path id="路径_3019" data-name="路径 3019" d="M205.7,145.979H180.163a2.4,2.4,0,0,1-2.394-2.4V72.5a4.728,4.728,0,1,0-9.456,0v71.081a2.4,2.4,0,0,1-2.4,2.4H140.384a2.4,2.4,0,0,1-2.4-2.4V67.391c-18.582-3.588-31.37-15.025-37.238-24.78a8.934,8.934,0,0,1-.844-7.356,8.914,8.914,0,0,1,14.966-3.384A76.992,76.992,0,0,0,140.794,49.1h64.495a77.137,77.137,0,0,0,26.169-17.473A8.793,8.793,0,0,1,238.28,29.1a8.929,8.929,0,0,1,6.951,13.679c-5.894,9.691-18.67,21.047-37.139,24.616v76.193A2.4,2.4,0,0,1,205.7,145.979Zm-23.14-4.792H203.3V65.381a2.392,2.392,0,0,1,2.019-2.365c17.943-2.846,30.266-13.608,35.816-22.73a4.141,4.141,0,0,0-3.192-6.413,3.975,3.975,0,0,0-3.1,1.14c-13.9,13.9-27.818,18.563-28.4,18.755a2.419,2.419,0,0,1-.744.118H140.384a2.422,2.422,0,0,1-.747-.118c-.576-.19-14.326-4.792-28.14-18.5a4.321,4.321,0,0,0-4.626-1.116,4.183,4.183,0,0,0-2.408,2.578,4.131,4.131,0,0,0,.391,3.408c5.522,9.181,17.853,20.009,35.9,22.874a2.392,2.392,0,0,1,2.019,2.365v75.806h20.744V72.5a9.519,9.519,0,0,1,19.037,0Z" transform="translate(0 7.889)" fill="#333"/>
    <path id="路径_3020" data-name="路径 3020" d="M129.26,59.99a2.4,2.4,0,0,1-2.358-2.837c2.721-14.509,14.049-19.258,14.53-19.452a2.395,2.395,0,0,1,1.811,4.434c-.382.159-9.409,4.045-11.631,15.9A2.4,2.4,0,0,1,129.26,59.99Z" transform="translate(37.52 19.461)" fill="#333"/>
    <path id="路径_3021" data-name="路径 3021" d="M216.8,81.174H109.2a2.4,2.4,0,1,1,0-4.792H216.8a2.4,2.4,0,0,1,0,4.792Z" transform="translate(10.043 72.694)" fill="#333"/>
  </g>
</svg>
