<svg xmlns="http://www.w3.org/2000/svg" width="146.651" height="146.649" viewBox="0 0 146.651 146.649">
  <g id="组_1779" data-name="组 1779" transform="translate(62.255 -384.718)">
    <g id="组_1774" data-name="组 1774" transform="translate(-13.99 384.718)">
      <g id="组_1772" data-name="组 1772">
        <path id="路径_3053" data-name="路径 3053" d="M-4.514,464.54h-9.664a3.289,3.289,0,0,1-3.185-2.476l-1.285-5.086a33.482,33.482,0,0,1-6.987-2.9l-4.507,2.692a3.284,3.284,0,0,1-4.01-.5l-6.831-6.835a3.258,3.258,0,0,1-.494-4.013l2.684-4.5a33.213,33.213,0,0,1-2.9-6.984l-5.083-1.285a3.3,3.3,0,0,1-2.48-3.185v-9.668a3.288,3.288,0,0,1,2.461-3.178l5.1-1.292a33.6,33.6,0,0,1,2.9-6.987l-2.688-4.507a3.264,3.264,0,0,1,.52-4.028l6.809-6.813a3.292,3.292,0,0,1,4.025-.49l4.492,2.681a33.55,33.55,0,0,1,6.987-2.9l1.285-5.083a3.284,3.284,0,0,1,3.185-2.48h9.664a3.281,3.281,0,0,1,3.185,2.476l1.285,5.086a33.268,33.268,0,0,1,6.987,2.9l4.507-2.688a3.279,3.279,0,0,1,4.01.5l6.831,6.835a3.259,3.259,0,0,1,.494,4.014l-2.684,4.5a33.7,33.7,0,0,1,2.9,6.987l5.079,1.285a3.3,3.3,0,0,1,2.484,3.185v9.668a3.291,3.291,0,0,1-2.461,3.178L23,433.933a33.129,33.129,0,0,1-2.9,6.984l2.688,4.507a3.264,3.264,0,0,1-.52,4.028l-6.809,6.813a3.28,3.28,0,0,1-4.025.49l-4.492-2.681a33.757,33.757,0,0,1-6.987,2.9l-1.285,5.083A3.285,3.285,0,0,1-4.514,464.54Zm-7.886-5.569h6.107l1.177-4.659a3.3,3.3,0,0,1,2.387-2.387,28,28,0,0,0,7.975-3.3,3.265,3.265,0,0,1,3.4-.015l4.128,2.462,4.318-4.318-2.465-4.132a3.281,3.281,0,0,1,.007-3.386,28.021,28.021,0,0,0,3.3-7.956,3.267,3.267,0,0,1,2.432-2.428L25,427.684v-6.111L20.339,420.4a3.251,3.251,0,0,1-2.395-2.424,27.994,27.994,0,0,0-3.3-7.934,3.3,3.3,0,0,1-.011-3.408l2.461-4.125-4.318-4.318-4.132,2.465a3.262,3.262,0,0,1-3.434-.041,28.069,28.069,0,0,0-7.908-3.275,3.3,3.3,0,0,1-2.417-2.384l-1.181-4.667H-12.4l-1.177,4.659a3.3,3.3,0,0,1-2.387,2.383,28.118,28.118,0,0,0-7.975,3.3,3.272,3.272,0,0,1-3.4.015l-4.125-2.461-4.318,4.318,2.465,4.128a3.289,3.289,0,0,1-.007,3.386,27.927,27.927,0,0,0-3.308,7.96,3.257,3.257,0,0,1-2.432,2.424l-4.619,1.169v6.111l4.659,1.173a3.264,3.264,0,0,1,2.395,2.439,27.88,27.88,0,0,0,3.293,7.919,3.3,3.3,0,0,1,.015,3.408l-2.461,4.128,4.318,4.318,4.128-2.465a3.284,3.284,0,0,1,3.438.041,27.866,27.866,0,0,0,7.908,3.271A3.3,3.3,0,0,1-13.58,454.3Zm-14.435-5.591.059.037Zm35.01-.022-.063.041Zm-2.384.033.011,0Zm-30.273,0-.007,0Zm-8.506-1.411-.026.015Zm47.266-.011.026.015ZM18,448.275l.011.015Zm-54.695-.008-.007.015Zm55.047-2.773-.037.037Zm-55.422-.022.037.037Zm-1.036-5.706-.007.011Zm57.513,0,0,.007Zm-59.829-5.506.067.011Zm62.183-.011-.063.018Zm-63.813-1.656.007.037Zm65.409-.019-.007.037Zm0-15.886h0Zm-65.406-.037-.007.037Zm1.652-1.652-.059.019Zm62.057-.007.063.015Zm-59.77-5.5.007.007Zm57.524-.008,0,.011Zm-1.08-5.732.037.037Zm-55.348-.022-.033.037Zm55.018-2.751-.007.015Zm-54.713-.007.011.015Zm3.713-3.69.022.011Zm47.314-.011-.026.015ZM-26.8,395.86l-.063.037Zm34.888-.019.059.037Zm-2.287.026-.007,0Zm-30.288,0,.007,0Z" transform="translate(49.255 -384.718)" fill="#333"/>
      </g>
      <g id="组_1773" data-name="组 1773" transform="translate(22.269 22.27)">
        <path id="路径_3054" data-name="路径 3054" d="M-25.663,426a17.429,17.429,0,0,1-12.426-5.176c-5.305-5.309-6.638-13.061-3.475-20.241a16.17,16.17,0,0,1,8.172-8.175c7.188-3.163,14.94-1.827,20.249,3.479s6.638,13.065,3.479,20.245a16.2,16.2,0,0,1-8.175,8.175h0A19.435,19.435,0,0,1-25.663,426Zm6.7-4.244h0Zm-6.679-25.461a13.555,13.555,0,0,0-5.5,1.21,10.521,10.521,0,0,0-5.32,5.324,12.374,12.374,0,0,0,2.317,14.06,12.378,12.378,0,0,0,14.063,2.32,10.515,10.515,0,0,0,5.32-5.328,12.368,12.368,0,0,0-2.317-14.056A12.164,12.164,0,0,0-25.644,396.295Z" transform="translate(43.257 -390.716)" fill="#333"/>
      </g>
    </g>
    <g id="组_1778" data-name="组 1778" transform="translate(-62.255 466.501)">
      <g id="组_1775" data-name="组 1775" transform="translate(37.125 14.725)">
        <path id="路径_3055" data-name="路径 3055" d="M-27.193,453.429a66.25,66.25,0,0,1-17.2-2.094l-5.87-1.749a2.788,2.788,0,0,1-1.871-3.468,2.791,2.791,0,0,1,3.464-1.871l5.747,1.719a60.3,60.3,0,0,0,15.734,1.893,77.118,77.118,0,0,0,25.929-4.3l50.588-21.292c1.077-.59,2.9-2.328,2.22-3.987a3.742,3.742,0,0,0-4.188-1.879l-29.129,6.208a2.784,2.784,0,1,1-1.162-5.446l29.048-6.189a9.224,9.224,0,0,1,10.577,5.183c1.879,4.552-1.08,9.044-4.971,11.134L.793,448.729A82.791,82.791,0,0,1-27.193,453.429Z" transform="translate(52.256 -410.712)" fill="#333"/>
      </g>
      <g id="组_1776" data-name="组 1776" transform="translate(0 3.607)">
        <path id="路径_3056" data-name="路径 3056" d="M-33.481,468.978a2.791,2.791,0,0,1-.676-.085,2.778,2.778,0,0,1-1.778-1.381l-25.988-48.264a2.784,2.784,0,0,1,.91-3.635l11.138-7.425a2.765,2.765,0,0,1,2.216-.386,2.792,2.792,0,0,1,1.778,1.381l25.989,48.264a2.791,2.791,0,0,1-.906,3.638l-11.138,7.425A2.8,2.8,0,0,1-33.481,468.978Zm-22.335-50.139,23.334,43.341L-26,457.858l-23.338-43.341Z" transform="translate(62.255 -407.718)" fill="#333"/>
      </g>
      <g id="组_1777" data-name="组 1777" transform="translate(14.85)">
        <path id="路径_3057" data-name="路径 3057" d="M24.353,441.912h-35.27a2.786,2.786,0,0,1-2.784-2.785,2.786,2.786,0,0,1,2.784-2.784h35.27a6.5,6.5,0,1,0,0-12.994H.221a2.769,2.769,0,0,1-1.671-.561l-3.167-2.372a41.7,41.7,0,0,0-40.913-4.83l-8.836,3.82a2.783,2.783,0,0,1-3.661-1.448,2.791,2.791,0,0,1,1.452-3.664l8.836-3.82a47.353,47.353,0,0,1,46.464,5.491l2.424,1.815h23.2a12.066,12.066,0,0,1,0,24.132Z" transform="translate(58.256 -406.746)" fill="#333"/>
      </g>
    </g>
  </g>
</svg>
