<svg xmlns="http://www.w3.org/2000/svg" width="130.533" height="153.913" viewBox="0 0 130.533 153.913">
  <g id="组_1771" data-name="组 1771" transform="translate(45.255 -262.25)">
    <g id="组_1756" data-name="组 1756" transform="translate(32.675 371.352)">
      <path id="路径_3038" data-name="路径 3038" d="M4.943,335.06a2.923,2.923,0,0,1-2.922-2.922V315.7a7.925,7.925,0,0,0-7.914-7.914h-11.5a7.872,7.872,0,0,1-7.863-7.867v-6.745a2.923,2.923,0,0,1,2.922-2.922,2.923,2.923,0,0,1,2.922,2.922v6.745a2.02,2.02,0,0,0,2.018,2.022h11.5A13.774,13.774,0,0,1,7.865,315.7v16.439A2.923,2.923,0,0,1,4.943,335.06Z" transform="translate(25.255 -290.25)" fill="#333"/>
    </g>
    <g id="组_1757" data-name="组 1757" transform="translate(-10.186 398.628)">
      <path id="路径_3039" data-name="路径 3039" d="M-33.333,314.784a2.923,2.923,0,0,1-2.922-2.922v-11.69a2.923,2.923,0,0,1,2.922-2.922,2.923,2.923,0,0,1,2.922,2.922v11.69A2.923,2.923,0,0,1-33.333,314.784Z" transform="translate(36.255 -297.25)" fill="#333"/>
    </g>
    <g id="组_1758" data-name="组 1758" transform="translate(40.468 398.628)">
      <path id="路径_3040" data-name="路径 3040" d="M-20.333,314.784a2.923,2.923,0,0,1-2.922-2.922v-11.69a2.923,2.923,0,0,1,2.922-2.922,2.923,2.923,0,0,1,2.922,2.922v11.69A2.923,2.923,0,0,1-20.333,314.784Z" transform="translate(23.255 -297.25)" fill="#333"/>
    </g>
    <g id="组_1759" data-name="组 1759" transform="translate(-25.772 371.352)">
      <path id="路径_3041" data-name="路径 3041" d="M-37.333,335.06a2.923,2.923,0,0,1-2.922-2.922V315.7A13.773,13.773,0,0,1-26.5,301.94H-15a2.022,2.022,0,0,0,2.018-2.022v-6.745a2.923,2.923,0,0,1,2.922-2.922,2.923,2.923,0,0,1,2.922,2.922v6.745A7.874,7.874,0,0,1-15,307.784H-26.5a7.921,7.921,0,0,0-7.91,7.914v16.439A2.923,2.923,0,0,1-37.333,335.06Z" transform="translate(40.255 -290.25)" fill="#333"/>
    </g>
    <g id="组_1760" data-name="组 1760" transform="translate(-20.16 285.018)">
      <path id="路径_3042" data-name="路径 3042" d="M2.027,379.755H.683a17.856,17.856,0,0,1-17.834-17.834V350.578a12.317,12.317,0,0,0-5.136-9.87c-14.327-10.435-19.985-28.363-14.413-45.66h0a38.5,38.5,0,0,1,23.917-24.54c13.022-4.493,26.664-2.661,37.438,5.019a40.278,40.278,0,0,1,16.88,32.735A40.245,40.245,0,0,1,24.67,340.946a11.628,11.628,0,0,0-4.8,9.476v11.5A17.859,17.859,0,0,1,2.027,379.755Zm-.686-105.81a37.47,37.47,0,0,0-12.219,2.089,32.651,32.651,0,0,0-20.262,20.8h0c-4.781,14.854.043,30.225,12.294,39.148a18.176,18.176,0,0,1,7.54,14.592v11.343a12,12,0,0,0,11.99,11.99H2.027a12.007,12.007,0,0,0,11.993-11.99v-11.5a17.485,17.485,0,0,1,7.255-14.234,34.387,34.387,0,0,0,14.413-27.926,34.426,34.426,0,0,0-14.425-27.973A34.1,34.1,0,0,0,1.341,273.945Zm-35.263,22h0Z" transform="translate(38.815 -268.093)" fill="#333"/>
    </g>
    <g id="组_1761" data-name="组 1761" transform="translate(12.012 308.203)">
      <path id="路径_3043" data-name="路径 3043" d="M-27.636,313.779a2.9,2.9,0,0,1-1.446-.382,2.919,2.919,0,0,1-1.091-3.986l7.477-13.131H-27a2.927,2.927,0,0,1-2.525-1.453,2.917,2.917,0,0,1-.016-2.915l9.332-16.389a2.911,2.911,0,0,1,3.986-1.091,2.918,2.918,0,0,1,1.095,3.982l-6.846,12.021h4.306a2.927,2.927,0,0,1,2.525,1.453,2.917,2.917,0,0,1,.016,2.915L-25.1,312.3A2.915,2.915,0,0,1-27.636,313.779Z" transform="translate(30.558 -274.043)" fill="#333"/>
    </g>
    <g id="组_1762" data-name="组 1762" transform="translate(17.058 262.25)">
      <path id="路径_3044" data-name="路径 3044" d="M-26.341,283.681h0a2.923,2.923,0,0,1-2.918-2.926l.031-15.586a2.923,2.923,0,0,1,2.922-2.918h0a2.924,2.924,0,0,1,2.918,2.926l-.031,15.586A2.923,2.923,0,0,1-26.341,283.681Z" transform="translate(29.263 -262.25)" fill="#333"/>
    </g>
    <g id="组_1763" data-name="组 1763" transform="translate(-45.255 324.594)">
      <path id="路径_3045" data-name="路径 3045" d="M-26.747,284.095H-42.333a2.923,2.923,0,0,1-2.922-2.922,2.923,2.923,0,0,1,2.922-2.922h15.586a2.923,2.923,0,0,1,2.922,2.922A2.923,2.923,0,0,1-26.747,284.095Z" transform="translate(45.255 -278.25)" fill="#333"/>
    </g>
    <g id="组_1764" data-name="组 1764" transform="translate(63.847 324.594)">
      <path id="路径_3046" data-name="路径 3046" d="M1.253,284.095H-14.333a2.923,2.923,0,0,1-2.922-2.922,2.923,2.923,0,0,1,2.922-2.922H1.253a2.922,2.922,0,1,1,0,5.845Z" transform="translate(17.255 -278.25)" fill="#333"/>
    </g>
    <g id="组_1765" data-name="组 1765" transform="translate(1.503 363.559)">
      <path id="路径_3047" data-name="路径 3047" d="M.84,294.095H-30.333a2.923,2.923,0,0,1-2.922-2.922,2.923,2.923,0,0,1,2.922-2.922H.84a2.922,2.922,0,1,1,0,5.845Z" transform="translate(33.255 -288.25)" fill="#333"/>
    </g>
    <g id="组_1766" data-name="组 1766" transform="translate(-26.226 358.004)">
      <path id="路径_3048" data-name="路径 3048" d="M-37.448,302.273a2.907,2.907,0,0,1-2.038-.826,2.919,2.919,0,0,1-.058-4.13l9.328-9.609a2.934,2.934,0,0,1,4.134-.062,2.927,2.927,0,0,1,.062,4.134l-9.332,9.609A2.915,2.915,0,0,1-37.448,302.273Z" transform="translate(40.371 -286.824)" fill="#333"/>
    </g>
    <g id="组_1767" data-name="组 1767" transform="translate(50.824 281.168)">
      <path id="路径_3049" data-name="路径 3049" d="M-17.674,282.059a2.93,2.93,0,0,1-2.1-.884,2.924,2.924,0,0,1,.066-4.134l9.391-9.11a2.924,2.924,0,0,1,4.134.062,2.927,2.927,0,0,1-.066,4.134l-9.391,9.106A2.9,2.9,0,0,1-17.674,282.059Z" transform="translate(20.597 -267.105)" fill="#333"/>
    </g>
    <g id="组_1768" data-name="组 1768" transform="translate(50.824 358.001)">
      <path id="路径_3050" data-name="路径 3050" d="M-8.283,302.275a2.9,2.9,0,0,1-2.089-.881l-9.395-9.6a2.927,2.927,0,0,1,.047-4.134,2.922,2.922,0,0,1,4.13.047l9.395,9.609a2.919,2.919,0,0,1-.047,4.13A2.908,2.908,0,0,1-8.283,302.275Z" transform="translate(20.597 -286.824)" fill="#333"/>
    </g>
    <g id="组_1769" data-name="组 1769" transform="translate(-26.224 281.172)">
      <path id="路径_3051" data-name="路径 3051" d="M-28.121,282.056a2.911,2.911,0,0,1-2.038-.83l-9.332-9.106a2.932,2.932,0,0,1-.051-4.138,2.938,2.938,0,0,1,4.134-.051l9.328,9.11a2.924,2.924,0,0,1,.051,4.138A2.92,2.92,0,0,1-28.121,282.056Z" transform="translate(40.371 -267.106)" fill="#333"/>
    </g>
    <g id="组_1770" data-name="组 1770" transform="translate(1.503 375.249)">
      <path id="路径_3052" data-name="路径 3052" d="M.84,297.095H-30.333a2.923,2.923,0,0,1-2.922-2.922,2.923,2.923,0,0,1,2.922-2.922H.84a2.922,2.922,0,1,1,0,5.845Z" transform="translate(33.255 -291.25)" fill="#333"/>
    </g>
  </g>
</svg>
