<svg xmlns="http://www.w3.org/2000/svg" viewBox="0 0 62.62998 56.15973"><defs><style>.a{fill:#fff;}</style></defs><path class="a" d="M11.09793,41.55465A5.33276,5.33276,0,1,0,5.766,36.22106v0A5.33355,5.33355,0,0,0,11.09793,41.55465Z"/><path class="a" d="M13.00418,42.69386h-.56106L11.48878,44.539h-.8957l-.9617-1.84516H9.19005c-1.88344,0-4.09668.75076-4.92235,2.30688L0,53.85285c0,1.27354,1.52758,2.30688,3.41022,2.30688H18.7856c1.88343,0,3.41022-1.03334,3.41022-2.30688L17.929,44.99992C17.27183,43.83957,14.88841,42.69386,13.00418,42.69386ZM11.30558,54.922,9.23975,53.32925l1.24588-8.493h1.13425L12.957,53.374Z"/><path class="a" d="M51.52971,41.55465a5.33276,5.33276,0,1,0-5.33192-5.33359v0A5.33436,5.33436,0,0,0,51.52971,41.55465Z"/><path class="a" d="M58.3599,44.99992c-.65714-1.16035-3.03971-2.30688-4.92319-2.30688h-.56107l-.9527,1.84516h-.89569L50.06639,42.693h-.44133c-1.88344,0-4.09832.75076-4.9232,2.30688L40.43417,53.852c0,1.27354,1.52842,2.30688,3.41186,2.30688H59.21976c1.88344,0,3.41022-1.03334,3.41022-2.30688Zm-6.62179,9.92125-2.065-1.59274,1.24588-8.493h1.12943l1.33788,8.53778Z"/><path class="a" d="M31.3134,10.6639a5.332,5.332,0,1,0-5.33193-5.332v0A5.33276,5.33276,0,0,0,31.3134,10.6639Z"/><path class="a" d="M42.41213,22.96286l-4.26685-8.85047c-.65878-1.15955-3.03971-2.30688-4.9232-2.30688H32.661l-.9527,1.84681h-.8957l-.96085-1.84681H29.408c-1.88428,0-4.09832.75159-4.92319,2.30688l-4.2677,8.85211c0,1.27518,1.52758,2.30688,3.41107,2.30688H39.00186C40.88942,25.26813,42.41213,24.238,42.41213,22.96286ZM31.52512,24.032l-2.06583-1.59192,1.24588-8.49464H31.8354l1.33788,8.54024Z"/><path class="a" d="M37.27885,44.706l-4.25462-4.253a1.99086,1.99086,0,0,0-1.18967-2.95422V31.8891H33.0454l-1.732-2.99821L29.58384,31.8891h1.21248v5.60963a1.99169,1.99169,0,0,0-1.17014,2.98762l-4.22043,4.22046-.85584-.85581-.89569,3.33858,3.34347-.89572-.85742-.85663,4.24811-4.2465a1.9967,1.9967,0,0,0,1.88995-.01874l4.26521,4.26524-.85583.85663,3.34347.89572L38.13549,43.851Z"/></svg>