<svg xmlns="http://www.w3.org/2000/svg" viewBox="0 0 59.94727 63.54443"><defs><style>.a{fill:#fff;}</style></defs><polygon class="a" points="24.482 54.573 36.356 52.285 36.411 50.66 24.421 52.968 24.482 54.573"/><polygon class="a" points="24.587 57.28 36.265 55.03 36.32 53.405 24.525 55.677 24.587 57.28"/><path class="a" d="M24.63085,58.45365a.0859.0859,0,0,0,.06746.05449H36.09366a.072.072,0,0,0,.05848-.04738l.07662-2.31128-11.6,2.23528Z"/><polygon class="a" points="32.444 49.713 32.458 49.339 28.014 49.339 26.785 49.339 24.282 49.339 24.378 51.865 36.447 49.54 36.454 49.339 33.686 49.339 33.672 49.713 32.444 49.713"/><path class="a" d="M30.23588,13.23358a17.19376,17.19376,0,0,0-8.92739,31.89027l.50832,12.70888a3.10522,3.10522,0,0,0,2.598,2.9062c.53413,1.59858,2.93755,2.8055,5.82112,2.8055,2.86492,0,5.25426-1.18971,5.81033-2.77221a3.08865,3.08865,0,0,0,2.90906-2.94753L39.39545,44.98a17.19284,17.19284,0,0,0-9.15957-31.74638Zm5.91626,45.22718a.072.072,0,0,1-.05848.04738H24.69831a.0859.0859,0,0,1-.06746-.05449l-.00212-.06889,11.6-2.23528Zm.11322-3.43091L24.58671,57.27977l-.06135-1.60257L36.3196,53.40514Zm.09084-2.74528-11.874,2.28808-.06129-1.60419,11.99007-2.30891ZM39.15934,32.234l-5.17907,9.28159-.29459,7.82359H36.4539l-.00736.20051L24.37841,51.8651l-.09626-2.52594h2.50237l-.293-7.82359L21.31105,32.234a.60657.60657,0,0,1,.10287-.71948.63212.63212,0,0,1,.12145-.1045c.00524-.00262.00829-.008.01278-.01091l.007-.00187a.59224.59224,0,0,1,.31635-.10144h16.581a.58313.58313,0,0,1,.17133.03492.59865.59865,0,0,1,.29933.06839A.613.613,0,0,1,39.15934,32.234Z"/><path class="a" d="M32.75945,41.32329a.59743.59743,0,0,1,.07693-.27676l3.37636-6.05025h-.00586l.38637-.6822,1.006-1.8024H22.87185l1.0071,1.8057.00074.00119.377.66169h-.00736l3.38534,6.06627a.62216.62216,0,0,1,.07743.27676l.30145,8.01587H32.458Z"/><path class="a" d="M30.23633,9.51367a1.06028,1.06028,0,0,1-1.06055-1.06055V1.06055a1.06055,1.06055,0,1,1,2.1211,0V8.45312A1.06028,1.06028,0,0,1,30.23633,9.51367Z"/><path class="a" d="M19.44238,12.2666a1.06063,1.06063,0,0,1-.91992-.53125L14.82617,5.334a1.061,1.061,0,0,1,1.83789-1.06054l3.69629,6.40136a1.06185,1.06185,0,0,1-.918,1.5918Z"/><path class="a" d="M11.4668,20.04785a1.05409,1.05409,0,0,1-.5293-.14258L4.53613,16.209a1.061,1.061,0,0,1,1.06055-1.83789L11.998,18.06738a1.06138,1.06138,0,0,1-.53125,1.98047Z"/><path class="a" d="M8.45312,30.77148H1.06055a1.06055,1.06055,0,1,1,0-2.12109H8.45312a1.06055,1.06055,0,1,1,0,2.12109Z"/><path class="a" d="M58.88672,31.29688h-7.3916a1.06055,1.06055,0,1,1,0-2.1211h7.3916a1.06055,1.06055,0,1,1,0,2.1211Z"/><path class="a" d="M48.74414,20.502a1.06138,1.06138,0,0,1-.53125-1.98047l6.40137-3.69531a1.061,1.061,0,1,1,1.06054,1.83789l-6.40136,3.69532A1.05418,1.05418,0,0,1,48.74414,20.502Z"/><path class="a" d="M40.96094,12.5293a1.06185,1.06185,0,0,1-.918-1.5918l3.69629-6.40234A1.061,1.061,0,1,1,45.57715,5.5957L41.88086,11.998A1.06063,1.06063,0,0,1,40.96094,12.5293Z"/><path class="a" d="M4.80469,45.26465a1.06138,1.06138,0,0,1-.53125-1.98047l6.40136-3.69629a1.061,1.061,0,0,1,1.06055,1.83789L5.334,45.12207A1.05406,1.05406,0,0,1,4.80469,45.26465Z"/><path class="a" d="M54.88086,45.71973a1.05409,1.05409,0,0,1-.5293-.14258L47.9502,41.88086A1.061,1.061,0,1,1,49.01074,40.043l6.40137,3.69629a1.06138,1.06138,0,0,1-.53125,1.98047Z"/></svg>