<svg xmlns="http://www.w3.org/2000/svg" viewBox="0 0 57.98122 51.43896"><defs><style>.a{fill:#fff;}</style></defs><path class="a" d="M15.47266,3.30273v.01416c.07812-.04931.15283-.102.23266-.14941C15.62842,3.21338,15.54785,3.25488,15.47266,3.30273Z"/><path class="a" d="M34.23389,31.228a16.05449,16.05449,0,0,0-5.42676-2.002L27.54248,38.7168h.03027V51.439h3.248V39.78613a16.65065,16.65065,0,0,1,2.77857,9.4917V51.439h7.45336V49.27783C41.05273,41.51172,38.40405,33.69336,34.23389,31.228Z"/><rect class="a" x="15.16675" y="46.66357" width="10.4021" height="4.77539"/><path class="a" d="M0,49.27783V51.439H7.45361V49.27783a17.82939,17.82939,0,0,1,2.68994-9.93017V51.439h2.89161V38.7168h.09253l-1.25342-9.40137A15.73534,15.73534,0,0,0,6.85938,31.2041C2.66113,33.64307,0,41.48682,0,49.27783Z"/><path class="a" d="M26.10742,28.78711l-.00146.01123c.95508.11719,1.86938.25439,2.70117.42773l.01611-.11962Z"/><path class="a" d="M11.84644,29.10645l.02783.209c.83227-.18652,1.73291-.34326,2.696-.47168l-.0083-.05664Z"/><path class="a" d="M24.51147,28.35254q-.36657-.02784-.73339-.05469.00036-1.14843.00048-2.29736a9.133,9.133,0,0,0,5.38428-5.51514.51778.51778,0,0,1,.18555-.29785.77134.77134,0,0,1,.34619-.05078c.49683-.03858.79785-.56348.94238-1.04a5.4533,5.4533,0,0,0-.05078-3.29639,1.73976,1.73976,0,0,0-.37109-.68017.75092.75092,0,0,0-.70874-.23145q-.1919-.583-.3833-1.166H30.137a1.269,1.269,0,0,0,0-2.5376h-.14135a8.66489,8.66489,0,0,1-.31739-1.63428,7.4969,7.4969,0,0,0-3.927-6.39648V3.13916a9.5554,9.5554,0,0,0-2.66333-1.05908l-.00439.01318c-.06348-.01465-.125-.03418-.189-.04785a2.2966,2.2966,0,0,0-4.57153.061c-.05371.01269-.105.03076-.15821.04443l-.00341-.01123A9.54984,9.54984,0,0,0,15.74609,3.144a9.2479,9.2479,0,0,1,1.15918-.57275,9.22764,9.22764,0,0,0-1.15893.57275l-.041.02344c-.07983.04736-.15454.1001-.23242.14941h-.00024a7.44368,7.44368,0,0,0-3.6604,6.23389,8.06414,8.06414,0,0,1-.365,1.63428h-.20484a1.269,1.269,0,0,0,0,2.5376h1.042a9.048,9.048,0,0,0-.38134,1.14795c-.7771.01367-1.1836,1.335-1.1836,2.63964,0,1.31153.41089,2.63916,1.196,2.63916a.62519.62519,0,0,0,.15063-.01806,9.20644,9.20644,0,0,0,4.95191,5.61377v2.55517c-.17188.01758-.291.03223-.34546.03809l-.21338.02344-.01856.21386a.67253.67253,0,0,0,.001.06836c-.6438.05616-1.27319.12012-1.87134.19971l1.42066,9.873h8.68774L26.106,28.79834c-.51465-.063-1.0503-.11572-1.59644-.16211C24.50928,28.54688,24.5061,28.45166,24.51147,28.35254ZM23.48779,2.7417a9.05974,9.05974,0,0,1,1.74024.71777V8.86426a.84059.84059,0,0,1-.04859.24023l-.02319-.01416c-.11987-.06982-.24121-.13672-.37891-.208-.125-.06445-.25195-.127-.39013-.18994-.12989-.05957-.26172-.11621-.36743-.15674L23.958,8.502h-.01734c-.14746-.0581-.30175-.09424-.45288-.14062Zm-7.4917.8623.01221-.00683L16.011,3.5957a8.87218,8.87218,0,0,1,1.72534-.77343V8.397a8.89035,8.89035,0,0,0-1.67481.79053.8585.8585,0,0,1-.06543-.32324Zm-5.47534,8.8501a.7344.7344,0,0,1,.72168-.74609H30.137a.746.746,0,0,1,0,1.49121H11.24243A.73386.73386,0,0,1,10.52075,12.4541ZM20.52856,28.4668c-1.0437,0-2.03686.03369-2.98706.09228V25.40332l-.15771-.06885a8.6924,8.6924,0,0,1-4.907-5.65381l-.114-.40332-.31225.27881a.23344.23344,0,0,1-.135.07031c-.22827,0-.67261-.74755-.67261-2.11621,0-1.36914.44434-2.11621.67261-2.11621a.1484.1484,0,0,1,.06469.01758l.07227.03662a9.29228,9.29228,0,0,0-.17017,1.38233c.5586-.63477.89527-1.53223,1.436-2.15625a9.74882,9.74882,0,0,1,.97339-.95166h6.99243a4.45356,4.45356,0,0,0,3.4519.43164c.342-.124.67627-.30469,1.01685-.43164h1.23291a11.12007,11.12007,0,0,1,1.52686,1.27588c.30468.22558.70654.46923.67407.84716.12622-.22168.34155-.47949.58081-.39062a.52253.52253,0,0,1,.25928.3291,4.75921,4.75921,0,0,1-.04761,3.54492c-.06568.15576-.20142.33692-.36157.28223a.3547.3547,0,0,1-.15479-.14014q-.18458-.24975-.36914-.50049a9.08831,9.08831,0,0,1-2.91284,4.93213,8.82534,8.82534,0,0,1-2.92237,1.71631q.00111,1.46338.00171,2.92725C22.3877,28.49609,21.48047,28.4668,20.52856,28.4668Z"/><path class="a" d="M55.82739,39.24219a7.40381,7.40381,0,0,0-2.1499-1.47071L53.677,16.27393a7.36457,7.36457,0,0,0,2.15039-1.47071l.31787-.38623A7.3348,7.3348,0,0,0,53.05957,2.6084v6.959a2.42667,2.42667,0,0,1-.23389,1.02,2.46866,2.46866,0,0,1-4.70263-1.022l-.00049-6.95752A7.33335,7.33335,0,0,0,45.03687,14.415l.31689.38916a7.41714,7.41714,0,0,0,2.15039,1.47119V37.77148a7.40061,7.40061,0,0,0-2.1499,1.47071l-.31738.38916a7.3321,7.3321,0,0,0,3.08569,11.80713v-6.959a2.46869,2.46869,0,0,1,4.937,0l-.001,6.95947a7.33629,7.33629,0,0,0,3.08814-11.80957Z"/></svg>