<svg xmlns="http://www.w3.org/2000/svg" viewBox="0 0 62.18842 53.59061"><defs><style>.a{fill:#fff;}</style></defs><path class="a" d="M59.75865,52.085a22.97038,22.97038,0,0,0-2.2-1.19686V22.52424L45.335,17.57712l-.01076.00506-5.25465,2.12655V45.42945c-.80118-.1157-1.61549-.19278-2.4336-.2754V20.69319l-4.52406,1.831v22.3283q-1.00847-.03394-2.01766-.06774l-.30009.01V20.96035l1.44855-.585,4.63988-1.87775.75338-.30626.24311-.09892,2.19049-.88632,4.39677-1.779.85788-.34123V5.851L30.85171,0,24.47966,2.57794v27.2634l.7933.31845,1.44847.585V44.9407c-.05009.00317-.09983.00364-.15.00744q-.75591.076-1.50739.15194c-.22075.02359-.4396.04479-.65972.06679V32.30913l-2.53169-1.02561-5.49205-2.22468L16.033,28.9202l-3.69024,1.49472V47.70351c-.3082.09939-.6162.19879-.91672.29565q-.58782.19848-1.156.39046c-.083.03387-.16207.06584-.24441.09924V31.35316l-2.36962.956V49.45574c-.1773.07249-.35825.14641-.5312.21715-.1614.069-.32161.13612-.47858.20338-.15388.07708-.30641.15305-.45642.22839-.30075.15-.59138.29629-.87437.43747A32.666,32.666,0,0,0,2.43233,52.0818C.8724,53.02764,0,53.59061,0,53.59061s.95723-.37289,2.59947-1.06169c.80909-.37748,1.84419-.67883,2.99831-1.10806,1.1478-.4476,2.48548-.804,3.92516-1.23959q.53934-.16145,1.10158-.328.57073-.13294,1.16045-.26969,1.1766-.28489,2.42854-.58814c.83568-.1893,1.70554-.31528,2.5874-.48178.88253-.152,1.77776-.352,2.7046-.44174q1.38267-.18068,2.80582-.368c.94773-.1,1.905-.14751,2.87043-.23487q.72172-.05793,1.45045-.11649c.49064-.02406.992-.026,1.48966-.04226q1.48231-.04083,2.97236-.08056,1.48332.03989,2.96155.07913c.49259.0171.9845.01647,1.47324.03989q.73407.05982,1.46118.11775c.97052.0869,1.93725.13359,2.88685.23425q1.42262.18612,2.80649.36782c.92688.09054,1.82207.28869,2.70583.44127.88062.16713,1.75112.29248,2.58621.48241q1.24972.302,2.42853.58751.58966.137,1.161.2697.56219.16713,1.10158.32936c1.43965.43541,2.778.79136,3.92077,1.23753,1.15032.42924,2.18348.72885,2.99894,1.10981,1.6492.69387,2.602,1.06438,2.602,1.06438S61.311,53.02637,59.75865,52.085Z"/><polygon class="a" points="21.873 28.787 21.873 3.633 16.381 5.851 16.381 26.562 16.902 26.777 21.873 28.787"/></svg>