<svg xmlns="http://www.w3.org/2000/svg" viewBox="0 0 47.43201 60.258"><defs><style>.a{fill:#fff;}</style></defs><path class="a" d="M43.233,57.992V1.949H41.498v-.12A1.828,1.828,0,0,0,39.671,0H29.239A1.829,1.829,0,0,0,27.41,1.829v.119H25.675V57.991H22.303V15.599L2.81,9.779V57.992H0v2.266H47.432V57.992ZM41.498,23.648v2.271h-2.19V23.648Zm-2.19-1.74v-2.272h2.19v2.272Zm2.19,5.751v2.27h-2.19v-2.27Zm0,4.011v2.273h-2.19V31.67ZM27.411,5.952H41.498v.91H27.411Zm0,2.19H41.498v.909H27.411Zm0,2.189H41.498v.91H27.411Zm0,2.19H41.498v.909H27.411Zm0,2.189H41.498v.909H27.411Zm0,2.189H41.498v.912H27.411Zm7.933,13.034V27.659h2.189v2.27Zm2.189,1.738v2.273H35.344V31.671ZM35.344,25.92v-2.271h2.189V25.92Zm0-4.011v-2.272h2.189v2.272Zm-3.967,8.024V27.659h2.192v2.27Zm2.192,1.738v2.273H31.377V31.671ZM31.377,25.92v-2.271h2.192V25.92Zm0-4.011v-2.272h2.192v2.272Zm-3.966-2.272h2.19v2.272h-2.19Zm0,4.012h2.19v2.271h-2.19Zm0,4.011h2.19V29.929h-2.19Zm0,4.011h2.19v2.273h-2.19Zm3.02,16.777h8.048v9.546H30.431ZM16.405,17.058h2.729v2.831H16.405Zm0,5h2.729v2.831H16.405Zm0,5h2.729v2.831H16.405Zm0,5h2.729v2.831H16.405Zm0,5h2.729v2.831H16.405Zm0,5h2.729v2.831H16.405Zm0,5h2.729v2.829H16.405ZM11.458,17.057h2.731v2.831H11.458Zm0,5h2.731v2.831H11.458Zm0,5h2.731v2.831H11.458Zm0,5h2.731v2.831H11.458Zm0,5h2.731v2.831H11.458Zm0,5h2.731v2.831H11.458Zm0,5h2.731v2.829H11.458ZM6.517,17.068H9.246v2.831H6.517Zm0,5H9.246v2.831H6.517Zm0,5H9.246v2.831H6.517Zm0,5H9.246v2.831H6.517Zm0,5H9.246v2.831H6.517Zm0,5H9.246v2.831H6.517Zm0,5H9.246v2.829H6.517Zm7.444,5.628h5.322v5.318H13.961Z"/></svg>