<svg xmlns="http://www.w3.org/2000/svg" viewBox="0 0 46.41831 61.8336"><defs><style>.a{fill:#fff;}</style></defs><path class="a" d="M22.44394,47.57578c-.09437.08692-.19082.16977-.28781.25292-.10006.08569-.19958.16985-.30164.25139q-.314.25314-.64541.48224l-4.56047,9.36911-.90809-5.39563,1.3483-2.16807q-.24624.05533-.49562.099a11.3768,11.3768,0,0,1-1.299.15394c-.24116.01583-.48178.02644-.72548.02644a11.65344,11.65344,0,0,1-2.71956-.324L13.219,52.53681,12.36372,58.029l-5.0524-9.925q-.3486-.27862-.67615-.58354l-.09291.08054C1.6371,51.8443.34007,58.39117,0,61.8336H28.663C27.718,51.76522,23.52748,48.30933,22.44394,47.57578Z"/><path class="a" d="M14.56776,28.12231A10.86334,10.86334,0,1,0,25.43141,38.98488,10.87557,10.87557,0,0,0,14.56776,28.12231Z"/><path class="a" d="M45.68161,54.67722a.21478.21478,0,0,0-.02359-.36882,5.50583,5.50583,0,0,1-2.32209-2.22717,4.2311,4.2311,0,0,0,2.38572,1.07332.2096.2096,0,0,0,.20412-.07647.21287.21287,0,0,0,.03282-.21595,37.47757,37.47757,0,0,1-1.869-7.67276c-.27759-1.61581-.54795-3.18836-.91684-4.59252a8.11387,8.11387,0,0,0-.55557-1.74639,8.39031,8.39031,0,0,0-.95166-1.8436A6.2028,6.2028,0,0,0,37.64274,34.357a8.22759,8.22759,0,0,0-2.56617-.40962,7.5009,7.5009,0,0,0-4.65792,1.58707,7.24615,7.24615,0,0,0-2.81248,3.627,12.34176,12.34176,0,0,0-.94859,3.05948,7.71218,7.71218,0,0,0-.09906.86935q-.09072.52947-.17238,1.0956a22.95905,22.95905,0,0,0,.274,6.28219c1.437,2.29688,2.87042,5.89763,3.37373,11.36557H46.41831a20.23331,20.23331,0,0,0-1.65608-6.6361A8.80871,8.80871,0,0,0,45.68161,54.67722Zm-5.036-1.30672c-.12926.16085-2.6945,1.83338-2.6945,1.83338l1.2616,1.72149-3.99454,3.137.00669.0146-.0123-.00922-.01291.00922.00776-.0146-3.99454-3.137,1.26107-1.72149s-2.56624-1.67253-2.69505-1.83338c-.22925-.28681,1.14717-1.60528,1.14717-1.60528l4.2865,8.288,4.28688-8.288S40.87436,53.08369,40.64557,53.3705Z"/><path class="a" d="M32.9397,0H3.92214A2.86652,2.86652,0,0,0,1.05633,2.86743V18.49352a2.86521,2.86521,0,0,0,2.86581,2.86589H15.58667l-.3848,4.90853,4.26644-4.90853H32.9397a2.86677,2.86677,0,0,0,2.86689-2.86589V2.86743A2.86808,2.86808,0,0,0,32.9397,0Zm-13.179,13.84981H5.27351a.50242.50242,0,1,1,0-1.00484H19.76073a.50242.50242,0,1,1,0,1.00484Zm11.47055-3.4731H5.27351a.503.503,0,1,1,0-1.00607H31.23128a.503.503,0,0,1,0,1.00607Zm0-3.47271H5.27351a.50254.50254,0,1,1,0-1.00507H31.23128a.50254.50254,0,1,1,0,1.00507Z"/><path class="a" d="M43.70229,13.8472H37.10254v5.64063a3.09174,3.09174,0,0,1-3.088,3.08853H25.30668v3.76006a1.79461,1.79461,0,0,0,1.79357,1.79511H35.9523l2.67038,3.071-.24117-3.071h5.32078a1.79525,1.79525,0,0,0,1.79357-1.79511V15.64108A1.794,1.794,0,0,0,43.70229,13.8472Z"/></svg>