<svg xmlns="http://www.w3.org/2000/svg" viewBox="0 0 62.4391 62.44246"><defs><style>.a{fill:#fff;}</style></defs><path class="a" d="M12.63823,31.22194A18.58166,18.58166,0,1,0,31.22,12.63941,18.60342,18.60342,0,0,0,12.63823,31.22194Zm31.5284-1.13152a12.99568,12.99568,0,1,1-14.07546-11.814A12.995,12.995,0,0,1,44.16663,30.09042Z"/><path class="a" d="M56.7,41.49373l3.0713-.11895a1.89617,1.89617,0,0,0,1.64322-1.30833l1.00967-4.86385a1.89806,1.89806,0,0,0-.98175-1.856L58.675,32.0071a2.31907,2.31907,0,0,1-1.18867-1.86923s-.00446-.35862-.07694-1.197l-.02381-.28982c-.04017-.31441.42217-.8859,1.02727-1.268l2.60624-1.64462a1.89774,1.89774,0,0,0,.76931-1.95492l-1.54-4.7175a1.89519,1.89519,0,0,0-1.77811-1.1155l-3.08093.223a2.20017,2.20017,0,0,1-1.884-.86813c-.32185-.53114-.98656-2.37718-.65263-3.01064L54.28454,11.574a1.88989,1.88989,0,0,0-.31135-2.07414l-3.7-3.31008a1.89339,1.89339,0,0,0-2.098-.08L45.62551,7.83859a2.19717,2.19717,0,0,1-2.06189.19029c-.54085-.29638-2.04446-1.57127-2.07239-2.28588L41.37,2.67109A1.89343,1.89343,0,0,0,40.06447,1.028L35.2015.01548a1.89152,1.89152,0,0,0-1.8547.98035L32.006,3.76532a2.318,2.318,0,0,1-1.86836,1.18981s-.35826.00543-1.19663.07642l-.29157.02827c-.31424.03842-.88415-.42418-1.26535-1.03024l-1.6455-2.60966A1.89441,1.89441,0,0,0,23.7855.65218L19.065,2.19317a1.89214,1.89214,0,0,0-1.11585,1.77715l.2233,3.08127a2.20214,2.20214,0,0,1-.86963,1.88429c-.52912.3222-2.37367.98831-3.00731.65438l-2.72449-1.433a1.893,1.893,0,0,0-2.07511.31021L6.18656,12.17016a1.89227,1.89227,0,0,0-.07668,2.09672l1.73032,2.551a2.193,2.193,0,0,1,.18907,2.0604c-.29848.54164-1.57276,2.04254-2.28763,2.07239L2.66728,21.07a1.89668,1.89668,0,0,0-1.64244,1.30676L.015,27.24128a1.89652,1.89652,0,0,0,.98245,1.855l2.7701,1.33984A2.31061,2.31061,0,0,1,4.954,32.3047s.006.35984.07878,1.197l.02705.29166c.03825.31476-.42418.88494-1.02989,1.26675L1.42189,36.705a1.89346,1.89346,0,0,0-.76958,1.95247L2.193,43.375A1.89411,1.89411,0,0,0,3.9708,44.49054l3.07786-.22338a2.19593,2.19593,0,0,1,1.884.86822c.3222.52816.98718,2.376.65438,3.00976l-1.43183,2.7217a1.891,1.891,0,0,0,.31091,2.0751l3.70222,3.31236a1.89729,1.89729,0,0,0,2.098.07764l2.54979-1.72944a2.1843,2.1843,0,0,1,2.06066-.1882c.5405.29787,2.04237,1.57128,2.07125,2.28553l.12114,3.07375a1.89743,1.89743,0,0,0,1.30641,1.64436l4.86148,1.00941a1.89667,1.89667,0,0,0,1.85566-.98052l1.34378-2.77046a2.32308,2.32308,0,0,1,1.86915-1.19016s.35747-.00446,1.19672-.07449l.28886-.02494c.31476-.04184.88389.42023,1.26561,1.02656l1.64585,2.60983a1.89028,1.89028,0,0,0,1.95247.7708l4.7196-1.54238a1.89381,1.89381,0,0,0,1.11585-1.77689l-.22242-3.08127a2.2037,2.2037,0,0,1,.869-1.88429c.52878-.32281,2.37577-.98656,3.0088-.65438L50.86968,54.286a1.891,1.891,0,0,0,2.07475-.31082l3.31035-3.7024a1.893,1.893,0,0,0,.07842-2.09759l-1.72935-2.54865a2.19184,2.19184,0,0,1-.19029-2.06092C54.70994,43.02448,55.98544,41.52087,56.7,41.49373ZM31.22,52.396A21.1746,21.1746,0,1,1,52.3943,31.22194,21.199,21.199,0,0,1,31.22,52.396Z"/></svg>