<svg xmlns="http://www.w3.org/2000/svg" viewBox="0 0 49.38624 62.02385"><defs><style>.a{fill:#fff;}</style></defs><path class="a" d="M38.49325,33.186c-.16122.14763-.327.29087-.49225.43254-.1685.1443-.339.28764-.51346.42825q-.53533.42791-1.10127.82267L28.60745,50.85094,27.05707,41.6485l2.3001-3.69839q-.41895.09205-.84519.16753a19.435,19.435,0,0,1-2.21524.26274c-.40932.02656-.82267.04436-1.23935.04436A19.88886,19.88886,0,0,1,20.42,37.87279l2.33526,3.77834-1.45824,9.367L12.67906,34.085q-.59516-.47328-1.15439-.99291l-.15657.13737C-.16968,43.20686-.01118,60.66642.00153,61.40484l.01052.619H49.38624l-.02525-.65548C48.54166,41.196,40.47433,34.52577,38.49325,33.186Z"/><path class="a" d="M25.05739,0A18.532,18.532,0,1,0,43.59105,18.53234,18.553,18.553,0,0,0,25.05739,0Z"/></svg>