<svg xmlns="http://www.w3.org/2000/svg" viewBox="0 0 65.61609 52.48203"><defs><style>.a{fill:#fff;}</style></defs><path class="a" d="M60.09308,31.47l1.842-28.34a3.131,3.131,0,0,0-3.13-3.13H6.81305a3.128,3.128,0,0,0-3.13,3.126V3.13L5.525,31.47,0,50.032c0,1.149,1.4,2.45,3.13,2.45H62.4881c1.727,0,3.128-1.3,3.128-2.45Zm-20.2,18.988h-14.4a1.95,1.95,0,0,1-2.085-1.777l.552-3.561a1.952,1.952,0,0,1,2.085-1.779H39.337a1.952,1.952,0,0,1,2.085,1.779l.554,3.561a1.95,1.95,0,0,1-2.088,1.777Zm17.3-15.777a1.06754,1.06754,0,0,1-.16.011H8.34607a1.188,1.188,0,0,1-.507-.111,1.227,1.227,0,0,1,.507-2.344h48.685a1.227,1.227,0,0,1,.16,2.444Zm-.508-5.685a3.032,3.032,0,0,1-2.056.778H10.75409a3.05311,3.05311,0,0,1-2.034-.751,2.33892,2.33892,0,0,1-.809-1.742L6.1261,4.649a2.684,2.684,0,0,1,2.841-2.49h47.442a2.683,2.683,0,0,1,2.841,2.49l-1.782,22.633a2.326,2.326,0,0,1-.786,1.714Z"/><path class="a" d="M49.6391,7.619a2.608,2.608,0,0,0-2.4,3.645l-8.458,6.655a2.608,2.608,0,0,0-3.67652.29415q-.04413.05178-.08551.10584l-6.206-2.962a2.50854,2.50854,0,0,0,.027-.354,2.612,2.612,0,1,0-5.049.935l-6.28,4.726a2.611,2.611,0,1,0,.843,1.035l6.217-4.678a2.6,2.6,0,0,0,3.66047-.34769q.033-.04.06451-.0813l6.211,2.96a2.53572,2.53572,0,0,0-.028.352,2.611,2.611,0,1,0,5.063-.889l8.522-6.706a2.61,2.61,0,1,0,1.571-4.692Z"/></svg>