<svg xmlns="http://www.w3.org/2000/svg" viewBox="0 0 70.2721 52.5344"><defs><style>.a{fill:#fff;}</style></defs><path class="a" d="M26.2653,0H44.0049a1.0244,1.0244,0,0,1,1.0244,1.0244V14.6687a1.0225,1.0225,0,0,1-1.0225,1.0225H26.2653a1.0225,1.0225,0,0,1-1.0225-1.0225V1.0225A1.0225,1.0225,0,0,1,26.2653,0Z"/><path class="a" d="M51.5109,36.8415H69.2478a1.0243,1.0243,0,0,1,1.0243,1.0243V51.5101a1.0243,1.0243,0,0,1-1.0243,1.0243H51.5099a1.0233,1.0233,0,0,1-1.0233-1.0233V37.8658A1.0243,1.0243,0,0,1,51.5109,36.8415Z"/><path class="a" d="M26.2671,36.8415H44.0049a1.0244,1.0244,0,0,1,1.0244,1.0244V51.5101a1.0243,1.0243,0,0,1-1.0243,1.0243H26.2662a1.0234,1.0234,0,0,1-1.0234-1.0234V37.8658a1.0243,1.0243,0,0,1,1.0243-1.0243Z"/><path class="a" d="M1.0243,36.8415H18.7621a1.0233,1.0233,0,0,1,1.0233,1.0233V51.5101a1.0243,1.0243,0,0,1-1.0243,1.0243H1.0233A1.0233,1.0233,0,0,1,0,51.5111V37.8658A1.0243,1.0243,0,0,1,1.0243,36.8415Z"/><path class="a" d="M62.527,25.0732a1.02367,1.02367,0,0,0-1.0234-1.0243H37.1828V18.4208a1.02482,1.02482,0,0,0-1.0234-1.0243H34.1126a1.02474,1.02474,0,0,0-1.0233,1.0243v5.6281H8.7018a1.02358,1.02358,0,0,0-1.0233,1.0243v.3658a1.15716,1.15716,0,0,0-.0254.1238v8.2095a1.02414,1.02414,0,0,0,1.0244,1.0225h2.0467a1.02251,1.02251,0,0,0,1.0225-1.0225V28.1424H33.0893v5.6299a1.0232,1.0232,0,0,0,1.0233,1.0225h2.0468a1.02328,1.02328,0,0,0,1.0234-1.0225V28.1424H58.4391v5.8212a1.02341,1.02341,0,0,0,1.0243,1.0225h2.0468a1.02243,1.02243,0,0,0,1.0224-1.0225V25.3714c0-.0131-.0056-.0224-.0056-.0356Z"/></svg>