<svg xmlns="http://www.w3.org/2000/svg" viewBox="0 0 75.7263 47.75154"><defs><style>.a{fill:#fff;}</style></defs><path class="a" d="M16.6098,3.86176A12.28411,12.28411,0,1,0,27.0479,22.59081,15.88847,15.88847,0,0,1,25.74045,7.95743,12.247,12.247,0,0,0,16.6098,3.86176Z"/><path class="a" d="M25.027,26.71706c-.14993.1182-.335.25574-.53916.39915A8.43032,8.43032,0,0,1,8.67344,27.042c-.38269-.27326-.67538-.5056-.84656-.64752-.06149-.05563-.12729-.10539-.18729-.16135l-.10473.09183C-.11179,32.93707-.00648,44.51028.00087,44.99944l.00728.41013H19.46332c.29707-4.4849,1.62295-12.46374,6.98094-18.36544a8.545,8.545,0,0,0-.92921-.74853c-.106.097-.21582.19176-.32558.28649C25.13524,26.62746,25.08119,26.6721,25.027,26.71706Z"/><path class="a" d="M50.25507,25.86943c-.12291.11084-.24872.21945-.3746.32707-.06075.05306-.12291.10315-.18515.15473a16.97515,16.97515,0,0,1-7.60714,3.33028c-.36145.04976-.71993.10712-1.08874.13018-.311.01827-.62339.03149-.93946.03149a15.03583,15.03583,0,0,1-3.33351-.37972,18.1207,18.1207,0,0,1-6.72189-3.482c-.06952-.063-.14564-.11928-.21367-.18325l-.11993.10414c-8.75449,7.57028-8.63455,20.81908-8.6243,21.37957l.00735.46965H58.5208l-.01975-.49709C57.87915,31.9471,51.758,26.88535,50.25507,25.86943ZM45.047,36.23694l-5.2636-2.6835-5.26368,2.6835V29.71986l5.26368,2.814,5.2636-2.814Z"/><path class="a" d="M26.06008,14.07784A14.09062,14.09062,0,0,0,40.13313,28.14643h.00438A14.07322,14.07322,0,1,0,26.06008,14.07784Z"/><path class="a" d="M59.92926,44.7027l15.791.004.00587-.36914c.00736-.43931-.14489-10.26576-7.01449-16.20986l-.09374-.08125q-.33252.309-.68777.59165l-4.88537,9.5102L62.177,32.56868l1.39159-2.24956a11.82,11.82,0,0,1-2.76277.32847c-.2473,0-.4932-.0105-.73753-.02628a11.78237,11.78237,0,0,1-1.31919-.15771q-.25355-.04488-.50412-.09985l1.37043,2.203-.91318,5.31311A38.30509,38.30509,0,0,1,59.92926,44.7027Z"/><path class="a" d="M61.2777,29.13962A11.0376,11.0376,0,1,0,54.67293,9.26777a14.79372,14.79372,0,0,1-2.71747,14.72785A11.03716,11.03716,0,0,0,61.2777,29.13962Z"/></svg>