<svg xmlns="http://www.w3.org/2000/svg" viewBox="0 0 33.78773 57.717"><defs><style>.a{fill:#fff;}</style></defs><path class="a" d="M33.787,7.472A9.11821,9.11821,0,0,0,30.19475.10388a.49766.49766,0,0,0-.79852.39476V6.85439L24.64087,9.7749,19.88613,6.85439V.498a.49752.49752,0,0,0-.797-.39591,9.13767,9.13767,0,0,0,1.9182,15.6523v25.8324A9.13181,9.13181,0,0,0,19.08761,57.231a.49764.49764,0,0,0,.79852-.39476V50.48044L24.64148,47.56l4.75475,2.92043v6.35644a.49734.49734,0,0,0,.797.3959,9.13758,9.13758,0,0,0-1.91843-15.65229v-25.833A9.143,9.143,0,0,0,33.787,7.472Z"/><path class="a" d="M9.964,26.514H7.10592V9.51582L8.356,7.53721,6.84439,0H3.82123L2.30953,7.53721,3.56009,9.51582V26.514H.70219A.75582.75582,0,0,0,0,27.31458v1.37129a.75616.75616,0,0,0,.70219.80058H.86091A6.42075,6.42075,0,0,0,0,32.73018V51.8576c0,3.23557,2.30183,5.8594,5.14172,5.8594h.38271c2.83967,0,5.142-2.62383,5.142-5.8594V32.73018a6.41868,6.41868,0,0,0-.86113-3.24373H9.964a.75632.75632,0,0,0,.70242-.80058V27.31458A.756.756,0,0,0,9.964,26.514ZM2.51881,53.76109H1.36938V32.73125H2.51881Zm3.3248,0H4.69419V32.73125H5.84361Zm3.32481,0H8.01868V32.73125H9.16842Z"/></svg>