<svg xmlns="http://www.w3.org/2000/svg" viewBox="0 0 59.85001 59.84998"><defs><style>.a{fill:#fff;}</style></defs><path class="a" d="M30.803,32.118v8.6a3.90784,3.90784,0,0,0,1.385-.347,3.83016,3.83016,0,0,0,1.211-.844,4.318,4.318,0,0,0,1.172-3,4.6,4.6,0,0,0-.9-2.92A4.46,4.46,0,0,0,30.803,32.118Z"/><path class="a" d="M29.924,0A29.925,29.925,0,1,0,59.85,29.926,29.925,29.925,0,0,0,29.924,0Zm8.551,37.764a7.92239,7.92239,0,0,1-1.9,2.557,8.47964,8.47964,0,0,1-2.691,1.614,10.214,10.214,0,0,1-3.075.634l.155,4.227c-.2-.026-.418-.058-.634-.1a3.48616,3.48616,0,0,0-1.267,0c-.219.039-.431.071-.636.1l.155-4.227a11.72564,11.72564,0,0,1-2.153-.211q-1.114-.213-2.152-.52a11.8016,11.8016,0,0,1-1.922-.749,6.966,6.966,0,0,1-1.422-.9q.307-1.153.539-2.285t.423-2.287h.73a6.2465,6.2465,0,0,0,.751,1.767,6.90635,6.90635,0,0,0,1.286,1.538,7.42919,7.42919,0,0,0,1.767,1.17,7.06554,7.06554,0,0,0,2.153.636v-9a18.55377,18.55377,0,0,1-3.306-1.056,9.01452,9.01452,0,0,1-2.5-1.575,6.24891,6.24891,0,0,1-1.575-2.208,7.62982,7.62982,0,0,1-.538-3,7.121,7.121,0,0,1,2.055-5.225,9.125,9.125,0,0,1,5.862-2.423l-.155-3.189c.2.027.417.058.636.1a3.57479,3.57479,0,0,0,1.267,0c.216-.039.429-.069.634-.1l-.155,3.189a10.26334,10.26334,0,0,1,1.635.155q.939.152,1.9.4a11.86611,11.86611,0,0,1,1.825.633,5.756,5.756,0,0,1,1.4.846q-.424,1-.807,1.94a12.82665,12.82665,0,0,0-.615,1.943h-.538a6.06852,6.06852,0,0,0-.846-1.616,6.4665,6.4665,0,0,0-1.191-1.248,5.53073,5.53073,0,0,0-1.364-.809,3.6916,3.6916,0,0,0-1.4-.287v8.3c1.154.307,2.235.649,3.249,1.017a10.14085,10.14085,0,0,1,2.652,1.424,6.36245,6.36245,0,0,1,1.806,2.172,7.20035,7.20035,0,0,1,.672,3.3,7.716,7.716,0,0,1-.714,3.351Z"/><path class="a" d="M26.269,19.161a4.03079,4.03079,0,0,0-.826,1.23,4.21186,4.21186,0,0,0-.326,1.73,3.362,3.362,0,0,0,.96,2.42,5.35973,5.35973,0,0,0,2.5,1.424v-7.764a3.34589,3.34589,0,0,0-1.191.231A3.09993,3.09993,0,0,0,26.269,19.161Z"/></svg>