<svg xmlns="http://www.w3.org/2000/svg" viewBox="0 0 60.055 63.45765"><defs><style>.a{fill:#fff;}</style></defs><path class="a" d="M59.61488,4.617S57.47336,6.67907,50.889,6.67907a39.6722,39.6722,0,0,1-5.06923-.3505C34.75068,4.90125,30.02878,0,30.02878,0s-4.723,4.90125-15.79392,6.32857a39.64668,39.64668,0,0,1-5.06923.3505C2.58267,6.67907.4401,4.617.4401,4.617S-5.95715,42.59011,30.02878,63.45765C66.012,42.59011,59.61488,4.617,59.61488,4.617ZM30.02771,59.4328C17.03159,51.37325,8.66929,40.02412,5.16019,25.67222A60.27932,60.27932,0,0,1,3.48894,9.57874a26.7024,26.7024,0,0,0,5.67669.55183,43.373,43.373,0,0,0,5.51054-.3787,35.43572,35.43572,0,0,0,15.3523-5.37743A35.42293,35.42293,0,0,0,45.3779,9.75187a43.39308,43.39308,0,0,0,5.51114.3787A26.7101,26.7101,0,0,0,56.5624,9.5795C56.87378,19.50177,54.88039,43.98711,30.02771,59.4328Z"/><polygon class="a" points="34.194 17.753 25.986 17.753 25.986 26.004 17.735 26.004 17.735 34.212 25.986 34.212 25.986 42.463 34.194 42.463 34.194 34.212 42.445 34.212 42.445 26.004 34.194 26.004 34.194 17.753"/></svg>