<svg xmlns="http://www.w3.org/2000/svg" width="136.582" height="136.583" viewBox="0 0 136.582 136.583"><g transform="translate(-239.538 -242.544)"><path d="M23.339,0h89.9a23.34,23.34,0,0,1,23.34,23.34v89.9a23.341,23.341,0,0,1-23.341,23.341h-89.9A23.341,23.341,0,0,1,0,113.242v-89.9A23.339,23.339,0,0,1,23.339,0Z" transform="translate(239.538 242.544)" fill="#fff"/><path d="M333.253,379.127V326.689h17.6l2.636-20.437H333.253V293.2c0-5.915,1.642-9.947,10.128-9.947l10.821-.005V264.972a144.748,144.748,0,0,0-15.77-.8c-15.6,0-26.284,9.524-26.284,27.014v15.071H294.5v20.437h17.645v52.438Z" fill="#1c1c80"/></g></svg>